<svg id="d2ea29a9-57be-4e89-979c-3daf8d853591" data-name="圖層 1" xmlns="http://www.w3.org/2000/svg" xmlns:xlink="http://www.w3.org/1999/xlink" viewBox="0 0 32 32"><defs><radialGradient id="7ae49015-6f09-425c-833d-2deaa99b06f7" cx="10.52" cy="11.09" r="18.42" gradientTransform="translate(-0.38) scale(1.02 1)" gradientUnits="userSpaceOnUse"><stop offset="0.43" stop-color="#4ebbae"/><stop offset="0.63" stop-color="#4fa6d1"/><stop offset="0.78" stop-color="#2880c1"/><stop offset="0.89" stop-color="#335ba9"/><stop offset="1" stop-color="#2e2f8f"/></radialGradient><radialGradient id="5a3a13dd-6df6-4919-b57b-568c1137fe4b" cx="7.12" cy="30.24" r="19.68" gradientTransform="translate(-0.38) scale(1.02 1)" gradientUnits="userSpaceOnUse"><stop offset="0.25" stop-color="#76c5af"/><stop offset="0.43" stop-color="#4ebbae"/><stop offset="0.63" stop-color="#4fa6d1"/><stop offset="0.78" stop-color="#2880c1"/><stop offset="0.89" stop-color="#335ba9"/><stop offset="1" stop-color="#2e2f8f"/></radialGradient><radialGradient id="cf59559d-775b-4f33-900d-e49c3650eba9" cx="7.12" cy="30.24" r="19.69" xlink:href="#5a3a13dd-6df6-4919-b57b-568c1137fe4b"/><radialGradient id="942fd322-7211-432e-a311-ff38ee34f3f9" cx="7.12" cy="30.24" r="19.68" xlink:href="#5a3a13dd-6df6-4919-b57b-568c1137fe4b"/><radialGradient id="86b936a2-549b-4c30-99c7-2604250dab52" cx="7.12" cy="30.24" r="19.68" xlink:href="#5a3a13dd-6df6-4919-b57b-568c1137fe4b"/><radialGradient id="4b24b7b5-915c-4c64-9568-3ac0dcfc08cf" cx="7.12" cy="30.24" r="19.68" xlink:href="#5a3a13dd-6df6-4919-b57b-568c1137fe4b"/><radialGradient id="57e562a1-e9b6-4a9c-92f1-34c582356bbf" cx="7.12" cy="30.24" r="19.68" xlink:href="#5a3a13dd-6df6-4919-b57b-568c1137fe4b"/><radialGradient id="2400889c-e213-44f5-bdec-5247365251b0" cx="7.12" cy="30.24" r="19.68" xlink:href="#5a3a13dd-6df6-4919-b57b-568c1137fe4b"/><radialGradient id="1b792133-3fed-43d4-9135-6959d930a6e9" cx="7.12" cy="30.24" r="19.69" xlink:href="#5a3a13dd-6df6-4919-b57b-568c1137fe4b"/><radialGradient id="896821ca-bde0-4686-bd24-6c28e13fd888" cx="7.12" cy="30.24" r="19.68" xlink:href="#5a3a13dd-6df6-4919-b57b-568c1137fe4b"/><radialGradient id="40cad16b-a081-4a2c-8ea4-5f951d055c09" cx="7.12" cy="30.24" r="19.69" xlink:href="#5a3a13dd-6df6-4919-b57b-568c1137fe4b"/><radialGradient id="84111f67-ceb9-470d-993a-39f859aee9f1" cx="7.12" cy="30.24" r="19.69" xlink:href="#5a3a13dd-6df6-4919-b57b-568c1137fe4b"/></defs><title>favicon</title><path d="M18.9,8.57a1.52,1.52,0,0,0,0-.33,1.59,1.59,0,0,0-3.17,0,1.49,1.49,0,0,0,.07.43h0a1.7,1.7,0,0,1,.09.52,1.81,1.81,0,0,1-3.25,1A2.37,2.37,0,0,0,10.56,9a2.33,2.33,0,0,0-2.36,2.3A2.29,2.29,0,0,0,9.25,13.2v0a1.83,1.83,0,0,1,.54,1.29A1.87,1.87,0,0,1,8,16.35H8A1.54,1.54,0,0,0,8,19.44a9.75,9.75,0,0,0,9.73,8.25,9.71,9.71,0,0,0,9.83-9.59A9.68,9.68,0,0,0,18.9,8.57Z" style="fill:url(#7ae49015-6f09-425c-833d-2deaa99b06f7)"/><ellipse cx="13.99" cy="8.93" rx="1.15" ry="1.12" style="fill:#4bb0a7"/><ellipse cx="7.72" cy="14.33" rx="1.15" ry="1.12" style="fill:#4bb0a7"/><ellipse cx="8.22" cy="8.32" rx="0.88" ry="0.86" style="fill:#4bb0a7"/><ellipse cx="16.66" cy="5.09" rx="0.88" ry="0.86" style="fill:#4bb0a7"/><ellipse cx="4.47" cy="12.76" rx="0.88" ry="0.86" style="fill:#4bb0a7"/><ellipse cx="8.22" cy="1.54" rx="0.63" ry="0.62" style="fill:#4bb0a7"/><ellipse cx="14.03" cy="2.99" rx="0.63" ry="0.62" style="fill:#4bb0a7"/><ellipse cx="12.8" cy="5.14" rx="0.51" ry="0.49" style="fill:#4bb0a7"/><ellipse cx="6.5" cy="5.71" rx="0.51" ry="0.49" style="fill:#4bb0a7"/><ellipse cx="5" cy="8.96" rx="0.54" ry="0.52" style="fill:#4bb0a7"/><path d="M16.24,13.78H12.62a.73.73,0,1,0,0,1.47h3.62a.73.73,0,1,0,0-1.47Z" style="fill:#fff"/><path d="M17.31,17.55H12.62a.72.72,0,0,0-.75.73v3.91h0a.75.75,0,0,0,1.5,0h0V19.75h0a.74.74,0,0,1,.75-.73h3.18a.73.73,0,1,0,0-1.47Z" style="fill:#fff"/><path d="M23.67,14.46h0l-1.08-.39h0A4.75,4.75,0,0,0,21,13.78a4.68,4.68,0,0,0-4.28,2.73c0,.05-.07.29.28.29H18.1a.57.57,0,0,0,.41-.17h0A3,3,0,0,1,22.78,16h0a.93.93,0,0,0,.54.18.91.91,0,0,0,.92-.9A.9.9,0,0,0,23.67,14.46Z" style="fill:#fff"/><path d="M22.46,20.83A.93.93,0,0,0,22,21h0a2.87,2.87,0,0,1-1.21.31A3,3,0,0,1,18.43,20h0a.46.46,0,0,0-.36-.2h-1.3c-.21,0-.22.12-.2.2a4.68,4.68,0,0,0,4.38,3,4.77,4.77,0,0,0,1.81-.36h0a.9.9,0,0,0,.62-.84A.91.91,0,0,0,22.46,20.83Z" style="fill:#fff"/><path d="M8.91,29.3a.24.24,0,1,0,0-.48H7.37a.24.24,0,0,0-.25.24V30.9a.25.25,0,0,0,.49,0v-.62H8.8a.2.2,0,1,0,0-.39H7.61V29.3Z" style="fill:url(#5a3a13dd-6df6-4919-b57b-568c1137fe4b)"/><ellipse cx="9.74" cy="29.04" rx="0.2" ry="0.19" style="fill:url(#cf59559d-775b-4f33-900d-e49c3650eba9)"/><ellipse cx="11.23" cy="29.04" rx="0.2" ry="0.19" style="fill:url(#942fd322-7211-432e-a311-ff38ee34f3f9)"/><path d="M11,29.86v.35h0a.55.55,0,0,1-1.1,0h0v-.35H9.52v.35a1,1,0,0,0,1.9,0v-.35Z" style="fill:url(#86b936a2-549b-4c30-99c7-2604250dab52)"/><path d="M13.18,29.54a.8.8,0,0,0-.89.23v-.05a.23.23,0,0,0-.45,0v1.2a.23.23,0,0,0,.45,0v-.77a.58.58,0,0,1,.44-.29c.42,0,.45.32.45.32v.74a.23.23,0,0,0,.45,0v-.84A.73.73,0,0,0,13.18,29.54Z" style="fill:url(#4b24b7b5-915c-4c64-9568-3ac0dcfc08cf)"/><path d="M17.35,30.57q0,.15-.25.34a1.28,1.28,0,0,1-.39.2,1.57,1.57,0,0,1-.45.05,1.2,1.2,0,1,1,0-2.41,1.34,1.34,0,0,1,.74.19q.32.21.32.41a.19.19,0,0,1-.06.15.24.24,0,0,1-.16.05.36.36,0,0,1-.21-.1l-.24-.2a.75.75,0,0,0-.94.14.86.86,0,0,0-.21.59.85.85,0,0,0,.19.58.7.7,0,0,0,.56.23.8.8,0,0,0,.41-.11,2.2,2.2,0,0,0,.26-.2.36.36,0,0,1,.2-.11.22.22,0,0,1,.16.06A.2.2,0,0,1,17.35,30.57Z" style="fill:url(#57e562a1-e9b6-4a9c-92f1-34c582356bbf)"/><path d="M18.93,29.77q0,.18-.2.18h-.25a.65.65,0,0,0-.46.24V31q0,.2-.24.2t-.21-.2V29.77a.2.2,0,0,1,.23-.22q.19,0,.22.25a.89.89,0,0,1,.58-.23Q18.93,29.58,18.93,29.77Z" style="fill:url(#2400889c-e213-44f5-bdec-5247365251b0)"/><path d="M21,30.23q0,.21-.24.21H19.53a.35.35,0,0,0,.18.29.63.63,0,0,0,.34.09.75.75,0,0,0,.42-.12.63.63,0,0,1,.26-.12.2.2,0,0,1,.14.05.18.18,0,0,1,.05.13q0,.21-.35.32a1.7,1.7,0,0,1-.53.08,1.14,1.14,0,0,1-.69-.19.71.71,0,0,1-.29-.61.72.72,0,0,1,.29-.61,1.09,1.09,0,0,1,.68-.21,1.12,1.12,0,0,1,.61.16A.59.59,0,0,1,21,30.23Zm-.44,0q-.08-.3-.5-.3a.52.52,0,0,0-.49.3Z" style="fill:url(#1b792133-3fed-43d4-9135-6959d930a6e9)"/><path d="M23.05,31a.17.17,0,0,1-.09.15.3.3,0,0,1-.19.06A.31.31,0,0,1,22.5,31a1.2,1.2,0,0,1-.65.16q-.75,0-.75-.49a.43.43,0,0,1,.26-.41,1.71,1.71,0,0,1,.56-.12l.54,0a.25.25,0,0,0-.17-.18.69.69,0,0,0-.26,0,1,1,0,0,0-.43.08.77.77,0,0,1-.26.09.18.18,0,0,1-.12,0,.15.15,0,0,1-.05-.11q0-.36.94-.36a1.1,1.1,0,0,1,.53.11.45.45,0,0,1,.26.42v.41a.66.66,0,0,0,.07.28A1.06,1.06,0,0,1,23.05,31Zm-.59-.26v-.22H22.3q-.75,0-.75.2t.14.12a.74.74,0,0,0,.21,0A1.44,1.44,0,0,0,22.46,30.69Z" style="fill:url(#896821ca-bde0-4686-bd24-6c28e13fd888)"/><path d="M24.85,30.83q0,.16-.22.26a1,1,0,0,1-.36.07.72.72,0,0,1-.41-.09.44.44,0,0,1-.15-.38V30h-.35a.14.14,0,0,1-.11-.06.19.19,0,0,1,0-.12.15.15,0,0,1,.16-.17h.35v-.42a.18.18,0,0,1,.2-.21q.25,0,.25.21v.41h.41q.17,0,.17.17a.16.16,0,0,1-.18.18h-.41v.7q0,.15.16.15a.36.36,0,0,0,.2-.07.34.34,0,0,1,.17-.08.15.15,0,0,1,.11.05A.17.17,0,0,1,24.85,30.83Z" style="fill:url(#40cad16b-a081-4a2c-8ea4-5f951d055c09)"/><path d="M26.85,30.23q0,.21-.24.21H25.43a.35.35,0,0,0,.18.29.63.63,0,0,0,.34.09.75.75,0,0,0,.42-.12.63.63,0,0,1,.26-.12.2.2,0,0,1,.14.05.17.17,0,0,1,.05.13q0,.21-.35.32a1.7,1.7,0,0,1-.53.08,1.14,1.14,0,0,1-.69-.19.7.7,0,0,1-.29-.61.72.72,0,0,1,.29-.61,1.09,1.09,0,0,1,.68-.21,1.12,1.12,0,0,1,.61.16A.59.59,0,0,1,26.85,30.23Zm-.44,0q-.08-.3-.5-.3a.52.52,0,0,0-.49.3Z" style="fill:url(#84111f67-ceb9-470d-993a-39f859aee9f1)"/></svg>