<svg id="89050364-9fca-4ffb-89b0-2bd8754d1e5c" data-name="圖層 1" xmlns="http://www.w3.org/2000/svg" xmlns:xlink="http://www.w3.org/1999/xlink" viewBox="0 0 625 625"><defs><radialGradient id="5e6d2f42-c670-4e5e-816c-7c7a14c59089" cx="209.91" cy="212.75" r="367.62" gradientUnits="userSpaceOnUse"><stop offset="0.43" stop-color="#4ebbae"/><stop offset="0.63" stop-color="#4fa6d1"/><stop offset="0.78" stop-color="#2880c1"/><stop offset="0.89" stop-color="#335ba9"/><stop offset="1" stop-color="#2e2f8f"/></radialGradient><radialGradient id="2be90fb3-3d32-4a39-93c6-55dad887e6f3" cx="142.05" cy="594.97" r="392.85" gradientUnits="userSpaceOnUse"><stop offset="0.25" stop-color="#76c5af"/><stop offset="0.43" stop-color="#4ebbae"/><stop offset="0.63" stop-color="#4fa6d1"/><stop offset="0.78" stop-color="#2880c1"/><stop offset="0.89" stop-color="#335ba9"/><stop offset="1" stop-color="#2e2f8f"/></radialGradient><radialGradient id="aca41fc0-9e59-4273-9098-fad95bbe185d" cx="142.04" cy="594.97" r="392.9" xlink:href="#2be90fb3-3d32-4a39-93c6-55dad887e6f3"/><radialGradient id="08813359-5379-4db4-aad6-e914f2761196" cx="142.05" cy="594.97" r="392.85" xlink:href="#2be90fb3-3d32-4a39-93c6-55dad887e6f3"/><radialGradient id="c58ff1e4-27eb-46b5-84d7-ab30d4221271" cx="142.05" cy="594.97" r="392.86" xlink:href="#2be90fb3-3d32-4a39-93c6-55dad887e6f3"/><radialGradient id="7acd3c38-1143-4f10-a83e-57312f43eefe" cx="142.05" cy="594.97" r="392.85" xlink:href="#2be90fb3-3d32-4a39-93c6-55dad887e6f3"/><radialGradient id="d6a9e95d-29e7-4fa6-89c1-3fd51341fc24" cx="142.04" cy="594.97" r="392.87" xlink:href="#2be90fb3-3d32-4a39-93c6-55dad887e6f3"/><radialGradient id="d2d5f2fe-a09c-42f5-b940-f938c9a6d323" cx="142.04" cy="594.97" r="392.86" xlink:href="#2be90fb3-3d32-4a39-93c6-55dad887e6f3"/><radialGradient id="ed263f3b-aa1c-4fe1-bf0f-53d1d3177aae" cx="142.03" cy="594.97" r="392.88" xlink:href="#2be90fb3-3d32-4a39-93c6-55dad887e6f3"/><radialGradient id="59a9009e-86cc-4f83-b89a-797c5097b0e1" cx="142.05" cy="594.97" r="392.85" xlink:href="#2be90fb3-3d32-4a39-93c6-55dad887e6f3"/><radialGradient id="94192cb9-81a3-471e-a3f4-99fe292a7e4f" cx="142.02" cy="594.97" r="392.89" xlink:href="#2be90fb3-3d32-4a39-93c6-55dad887e6f3"/><radialGradient id="500cb07d-3ea7-454c-b1a3-51442cb13885" cx="142.02" cy="594.97" r="392.88" xlink:href="#2be90fb3-3d32-4a39-93c6-55dad887e6f3"/></defs><title>logo1</title><path d="M375.56,162.54a30.87,30.87,0,1,0-61-6.53,30.34,30.34,0,0,0,1.36,8.57l-.21,0A34.71,34.71,0,0,1,317.4,175,35.08,35.08,0,0,1,254,195.86a46,46,0,1,0-66.43,59.07c-.07.13-.15.24-.23.36A36.87,36.87,0,0,1,164,317.83a1.92,1.92,0,0,0,0,.24,30.73,30.73,0,0,0-1.26,61.29C175.77,472.38,255.64,544,352.25,544,458,544,543.71,458.27,543.71,352.52,543.71,254.69,470.29,174,375.56,162.54Z" style="fill:url(#5e6d2f42-c670-4e5e-816c-7c7a14c59089)"/><circle cx="279.87" cy="169.67" r="22.31" style="fill:#4bb0a7"/><circle cx="157.72" cy="277.41" r="22.3" style="fill:#4bb0a7"/><circle cx="167.4" cy="157.58" r="17.23" style="fill:#4bb0a7"/><circle cx="331.75" cy="93.08" r="17.23" style="fill:#4bb0a7"/><circle cx="94.32" cy="246.1" r="17.23" style="fill:#4bb0a7"/><path d="M179.76,22.23A12.35,12.35,0,1,1,167.4,9.88,12.35,12.35,0,0,1,179.76,22.23Z" style="fill:#4bb0a7"/><circle cx="280.63" cy="51.23" r="12.35" style="fill:#4bb0a7"/><ellipse cx="256.65" cy="94.11" rx="9.86" ry="9.87" style="fill:#4bb0a7"/><circle cx="133.91" cy="105.43" r="9.87" style="fill:#4bb0a7"/><circle cx="104.7" cy="170.37" r="10.45" style="fill:#4bb0a7"/><path d="M323.62,266.53H253.18a14.63,14.63,0,0,0,0,29.26h70.44a14.63,14.63,0,0,0,0-29.26Z" style="fill:#fff"/><path d="M344.42,341.68H253.18c-14.62,0-14.63,14.64-14.63,14.64v78.06h0a14.63,14.63,0,0,0,29.26,0s0-.05,0-.06V385.73h0c0-.05,0-.1,0-.15A14.62,14.62,0,0,1,282.43,371h62a14.63,14.63,0,1,0,0-29.27Z" style="fill:#fff"/><path d="M468.46,280.12h0l-21.13-7.86v.12a90.75,90.75,0,0,0-115.23,48.75c-.32,1-1.34,5.71,5.39,5.71H360s5.3.09,8-3.36h0a58.4,58.4,0,0,1,83.09-12.32v-.09a17.88,17.88,0,1,0,17.38-30.93Z" style="fill:#fff"/><path d="M444.9,407.13a17.84,17.84,0,0,0-9.73,2.91v0c-9.9,5.64-21.71,6.15-23.48,6.19a58.7,58.7,0,0,1-45.4-26.54v0a8.94,8.94,0,0,0-7-4H334c-4.12,0-4.19,2.42-3.86,3.9A91.18,91.18,0,0,0,450.86,441.9l0,0a17.87,17.87,0,0,0-5.93-34.74Z" style="fill:#fff"/><path d="M180.87,576.33a4.78,4.78,0,1,0,0-9.56h-30a4.78,4.78,0,0,0-4.78,4.78v36.58a4.78,4.78,0,0,0,9.56,0V595.7h23a3.94,3.94,0,0,0,0-7.87h-23v-11.5Z" style="fill:url(#2be90fb3-3d32-4a39-93c6-55dad887e6f3)"/><circle cx="197.04" cy="571.02" r="3.81" style="fill:url(#aca41fc0-9e59-4273-9098-fad95bbe185d)"/><circle cx="226.08" cy="571.02" r="3.81" style="fill:url(#08813359-5379-4db4-aad6-e914f2761196)"/><path d="M222.32,587.34v7.13a10.76,10.76,0,1,1-21.52,0v-.1h.06v-7h-8v7a18.54,18.54,0,1,0,37.08,0v-7Z" style="fill:url(#c58ff1e4-27eb-46b5-84d7-ab30d4221271)"/><path d="M264,581c-12.29-3.15-17.33,4.56-17.33,4.56v-1a4.4,4.4,0,0,0-8.79,0v23.91a4.4,4.4,0,1,0,8.79,0V593.15c4-5.89,8.64-5.81,8.64-5.81,8.13.25,8.7,6.31,8.7,6.31v14.86a4.4,4.4,0,0,0,8.8,0V591.77A14.49,14.49,0,0,0,264,581Z" style="fill:url(#7acd3c38-1143-4f10-a83e-57312f43eefe)"/><path d="M345.32,601.54q0,3-4.87,6.69a24.81,24.81,0,0,1-7.56,4,29.84,29.84,0,0,1-8.71,1.09q-11.21,0-17.29-6.28t-6.08-17.49q0-10.53,6.62-17.42t17.15-6.82a25.6,25.6,0,0,1,14.32,3.85q6.14,4.13,6.14,8.18a3.77,3.77,0,0,1-1.15,2.9,4.56,4.56,0,0,1-3,1q-1.76,0-4.19-2.09a42.62,42.62,0,0,0-4.66-4,14.3,14.3,0,0,0-18.3,2.7,17.47,17.47,0,0,0-4.18,11.68q0,7.3,3.65,11.55,3.85,4.6,11,4.59a15.36,15.36,0,0,0,8-2.16,43,43,0,0,0,5-4q2.43-2.16,3.85-2.16a4.31,4.31,0,0,1,3,1.28A4,4,0,0,1,345.32,601.54Z" style="fill:url(#d6a9e95d-29e7-4fa6-89c1-3fd51341fc24)"/><path d="M376,585.61q0,3.51-3.92,3.51a15.38,15.38,0,0,1-2.43-.27,21.82,21.82,0,0,0-2.43-.2q-4.39,0-8.92,4.87v15.87q0,4-4.72,4-4.12,0-4.12-4.05V585.68q0-4.38,4.39-4.38,3.78,0,4.25,5.06a17.11,17.11,0,0,1,11.34-4.52Q376,581.83,376,585.61Z" style="fill:url(#d2d5f2fe-a09c-42f5-b940-f938c9a6d323)"/><path d="M415.47,594.8q0,4.18-4.73,4.19h-23a7.07,7.07,0,0,0,3.51,5.74,12,12,0,0,0,6.68,1.89,14.27,14.27,0,0,0,8.1-2.43q3.65-2.42,5.07-2.43a3.88,3.88,0,0,1,2.76,1.08,3.55,3.55,0,0,1,1,2.63q0,4.12-6.82,6.35a32.44,32.44,0,0,1-10.27,1.69q-8.38,0-13.37-3.71-5.6-4.12-5.6-12.23,0-7.83,5.74-12.22,5.27-4.12,13.31-4.12a21.35,21.35,0,0,1,11.88,3.24A11.88,11.88,0,0,1,415.47,594.8Zm-8.51-.61q-1.55-6-9.65-6-6.48,0-9.59,6Z" style="fill:url(#ed263f3b-aa1c-4fe1-bf0f-53d1d3177aae)"/><path d="M456.39,609.18a3.51,3.51,0,0,1-1.69,3,5.74,5.74,0,0,1-3.65,1.28,5.93,5.93,0,0,1-5.54-3.38,23,23,0,0,1-12.63,3.24q-14.65,0-14.65-9.72a8.58,8.58,0,0,1,5.13-8.1q3.78-1.83,11-2.44,5.27-.27,10.53-.47c-.27-1.53-1.4-2.7-3.37-3.51a13.17,13.17,0,0,0-5.07-.94,20,20,0,0,0-8.37,1.69q-3.65,1.75-5,1.76a3.51,3.51,0,0,1-2.36-.94,3,3,0,0,1-1-2.23q0-7.15,18.37-7.16a20.91,20.91,0,0,1,10.26,2.23,9,9,0,0,1,5.13,8.44v8.17a13.35,13.35,0,0,0,1.42,5.6A21.51,21.51,0,0,1,456.39,609.18ZM444.84,604v-4.45l-3.11-.06q-14.65,0-14.65,4,0,1.62,2.63,2.43a14.07,14.07,0,0,0,4.18.61A27.46,27.46,0,0,0,444.84,604Z" style="fill:url(#59a9009e-86cc-4f83-b89a-797c5097b0e1)"/><path d="M491.37,606.82q0,3.24-4.32,5.13a18.23,18.23,0,0,1-7.09,1.42q-5.47,0-8-1.89-2.9-2.22-2.9-7.5V589.32H462.2a2.62,2.62,0,0,1-2.16-1.14,3.79,3.79,0,0,1-1-2.43q0-3.3,3.17-3.31H469v-8.31q0-4.12,3.92-4.11,4.86,0,4.86,4.19v8.24h8q3.38,0,3.38,3.31c0,2.39-1.15,3.57-3.45,3.57h-8v14q0,3,3.17,3a6.82,6.82,0,0,0,3.85-1.42,6.64,6.64,0,0,1,3.31-1.55,2.81,2.81,0,0,1,2.23,1A3.47,3.47,0,0,1,491.37,606.82Z" style="fill:url(#94192cb9-81a3-471e-a3f4-99fe292a7e4f)"/><path d="M530.39,594.8q0,4.18-4.73,4.19h-23a7.06,7.06,0,0,0,3.51,5.74,12,12,0,0,0,6.68,1.89,14.29,14.29,0,0,0,8.11-2.43q3.64-2.42,5.06-2.43a3.88,3.88,0,0,1,2.76,1.08,3.54,3.54,0,0,1,1,2.63q0,4.12-6.82,6.35a32.45,32.45,0,0,1-10.26,1.69q-8.38,0-13.37-3.71-5.61-4.12-5.61-12.23,0-7.83,5.74-12.22,5.28-4.12,13.3-4.12a21.37,21.37,0,0,1,11.89,3.24A11.87,11.87,0,0,1,530.39,594.8Zm-8.51-.61q-1.56-6-9.66-6-6.49,0-9.59,6Z" style="fill:url(#500cb07d-3ea7-454c-b1a3-51442cb13885)"/></svg>