<?xml version="1.0" encoding="utf-8"?>
<!-- Generator: Adobe Illustrator 21.0.0, SVG Export Plug-In . SVG Version: 6.00 Build 0)  -->
<svg version="1.1" id="Calque_1" xmlns="http://www.w3.org/2000/svg" xmlns:xlink="http://www.w3.org/1999/xlink" x="0px" y="0px"
	 viewBox="0 0 73 85.4" style="enable-background:new 0 0 73 85.4;" xml:space="preserve">
<style type="text/css">
	.st0{opacity:0.3;}
	.st1{opacity:0;fill:url(#SVGID_1_);}
	.st2{opacity:2.439100e-02;fill:url(#SVGID_2_);}
	.st3{opacity:4.878100e-02;fill:url(#SVGID_3_);}
	.st4{opacity:7.317100e-02;fill:url(#SVGID_4_);}
	.st5{opacity:9.756100e-02;fill:url(#SVGID_5_);}
	.st6{opacity:0.122;fill:url(#SVGID_6_);}
	.st7{opacity:0.1463;fill:url(#SVGID_7_);}
	.st8{opacity:0.1707;fill:url(#SVGID_8_);}
	.st9{opacity:0.1951;fill:url(#SVGID_9_);}
	.st10{opacity:0.2195;fill:url(#SVGID_10_);}
	.st11{opacity:0.2439;fill:url(#SVGID_11_);}
	.st12{opacity:0.2683;fill:url(#SVGID_12_);}
	.st13{opacity:0.2927;fill:url(#SVGID_13_);}
	.st14{opacity:0.3171;fill:url(#SVGID_14_);}
	.st15{opacity:0.3415;fill:url(#SVGID_15_);}
	.st16{opacity:0.3659;fill:url(#SVGID_16_);}
	.st17{opacity:0.3902;fill:url(#SVGID_17_);}
	.st18{opacity:0.4146;fill:url(#SVGID_18_);}
	.st19{opacity:0.439;fill:url(#SVGID_19_);}
	.st20{opacity:0.4634;fill:url(#SVGID_20_);}
	.st21{opacity:0.4878;fill:url(#SVGID_21_);}
	.st22{opacity:0.5122;fill:url(#SVGID_22_);}
	.st23{opacity:0.5366;fill:url(#SVGID_23_);}
	.st24{opacity:0.561;fill:url(#SVGID_24_);}
	.st25{opacity:0.5854;fill:url(#SVGID_25_);}
	.st26{opacity:0.6098;fill:url(#SVGID_26_);}
	.st27{opacity:0.6341;fill:url(#SVGID_27_);}
	.st28{opacity:0.6585;fill:url(#SVGID_28_);}
	.st29{opacity:0.6829;fill:url(#SVGID_29_);}
	.st30{opacity:0.7073;fill:url(#SVGID_30_);}
	.st31{opacity:0.7317;fill:url(#SVGID_31_);}
	.st32{opacity:0.7561;fill:url(#SVGID_32_);}
	.st33{opacity:0.7805;fill:url(#SVGID_33_);}
	.st34{opacity:0.8049;fill:url(#SVGID_34_);}
	.st35{opacity:0.8293;fill:url(#SVGID_35_);}
	.st36{opacity:0.8537;fill:url(#SVGID_36_);}
	.st37{opacity:0.878;fill:url(#SVGID_37_);}
	.st38{opacity:0.9024;fill:url(#SVGID_38_);}
	.st39{opacity:0.9268;fill:url(#SVGID_39_);}
	.st40{opacity:0.9512;fill:url(#SVGID_40_);}
	.st41{opacity:0.9756;fill:url(#SVGID_41_);}
	.st42{fill:url(#SVGID_42_);}
	.st43{fill:url(#SVGID_43_);}
	.st44{opacity:0.7;}
	.st45{opacity:0;}
	.st46{opacity:1.408400e-02;}
	.st47{opacity:2.816800e-02;}
	.st48{opacity:4.225300e-02;}
	.st49{opacity:5.633800e-02;}
	.st50{opacity:7.042200e-02;}
	.st51{opacity:8.450700e-02;}
	.st52{opacity:9.859100e-02;}
	.st53{opacity:0.1127;}
	.st54{opacity:0.1268;}
	.st55{opacity:0.1408;}
	.st56{opacity:0.1549;}
	.st57{opacity:0.169;}
	.st58{opacity:0.1831;}
	.st59{opacity:0.1972;}
	.st60{opacity:0.2113;}
	.st61{opacity:0.2254;}
	.st62{opacity:0.2394;}
	.st63{opacity:0.2535;}
	.st64{opacity:0.2676;}
	.st65{opacity:0.2817;}
	.st66{opacity:0.2958;}
	.st67{opacity:0.3099;}
	.st68{opacity:0.3239;}
	.st69{opacity:0.338;}
	.st70{opacity:0.3521;}
	.st71{opacity:0.3662;}
	.st72{opacity:0.3803;}
	.st73{opacity:0.3944;}
	.st74{opacity:0.4085;}
	.st75{opacity:0.4225;}
	.st76{opacity:0.4366;}
	.st77{opacity:0.4507;}
	.st78{opacity:0.4648;}
	.st79{opacity:0.4789;}
	.st80{opacity:0.493;}
	.st81{opacity:0.507;}
	.st82{opacity:0.5211;}
	.st83{opacity:0.5352;}
	.st84{opacity:0.5493;}
	.st85{opacity:0.5634;}
	.st86{opacity:0.5775;}
	.st87{opacity:0.5915;}
	.st88{opacity:0.6056;}
	.st89{opacity:0.6197;}
	.st90{opacity:0.6338;}
	.st91{opacity:0.6479;}
	.st92{opacity:0.662;}
	.st93{opacity:0.6761;}
	.st94{opacity:0.6901;}
	.st95{opacity:0.7042;}
	.st96{opacity:0.7183;}
	.st97{opacity:0.7324;}
	.st98{opacity:0.7465;}
	.st99{opacity:0.7606;}
	.st100{opacity:0.7746;}
	.st101{opacity:0.7887;}
	.st102{opacity:0.8028;}
	.st103{opacity:0.8169;}
	.st104{opacity:0.831;}
	.st105{opacity:0.8451;}
	.st106{opacity:0.8592;}
	.st107{opacity:0.8732;}
	.st108{opacity:0.8873;}
	.st109{opacity:0.9014;}
	.st110{opacity:0.9155;}
	.st111{opacity:0.9296;}
	.st112{opacity:0.9437;}
	.st113{opacity:0.9577;}
	.st114{opacity:0.9718;}
	.st115{opacity:0.9859;}
	.st116{fill:url(#SVGID_44_);stroke:#FFFFFF;stroke-width:0.7398;stroke-miterlimit:10;}
	.st117{fill:url(#SVGID_45_);}
	.st118{opacity:0;fill:url(#SVGID_46_);}
	.st119{opacity:2.439100e-02;fill:url(#SVGID_47_);}
	.st120{opacity:4.878100e-02;fill:url(#SVGID_48_);}
	.st121{opacity:7.317100e-02;fill:url(#SVGID_49_);}
	.st122{opacity:9.756100e-02;fill:url(#SVGID_50_);}
	.st123{opacity:0.122;fill:url(#SVGID_51_);}
	.st124{opacity:0.1463;fill:url(#SVGID_52_);}
	.st125{opacity:0.1707;fill:url(#SVGID_53_);}
	.st126{opacity:0.1951;fill:url(#SVGID_54_);}
	.st127{opacity:0.2195;fill:url(#SVGID_55_);}
	.st128{opacity:0.2439;fill:url(#SVGID_56_);}
	.st129{opacity:0.2683;fill:url(#SVGID_57_);}
	.st130{opacity:0.2927;fill:url(#SVGID_58_);}
	.st131{opacity:0.3171;fill:url(#SVGID_59_);}
	.st132{opacity:0.3415;fill:url(#SVGID_60_);}
	.st133{opacity:0.3659;fill:url(#SVGID_61_);}
	.st134{opacity:0.3902;fill:url(#SVGID_62_);}
	.st135{opacity:0.4146;fill:url(#SVGID_63_);}
	.st136{opacity:0.439;fill:url(#SVGID_64_);}
	.st137{opacity:0.4634;fill:url(#SVGID_65_);}
	.st138{opacity:0.4878;fill:url(#SVGID_66_);}
	.st139{opacity:0.5122;fill:url(#SVGID_67_);}
	.st140{opacity:0.5366;fill:url(#SVGID_68_);}
	.st141{opacity:0.561;fill:url(#SVGID_69_);}
	.st142{opacity:0.5854;fill:url(#SVGID_70_);}
	.st143{opacity:0.6098;fill:url(#SVGID_71_);}
	.st144{opacity:0.6341;fill:url(#SVGID_72_);}
	.st145{opacity:0.6585;fill:url(#SVGID_73_);}
	.st146{opacity:0.6829;fill:url(#SVGID_74_);}
	.st147{opacity:0.7073;fill:url(#SVGID_75_);}
	.st148{opacity:0.7317;fill:url(#SVGID_76_);}
	.st149{opacity:0.7561;fill:url(#SVGID_77_);}
	.st150{opacity:0.7805;fill:url(#SVGID_78_);}
	.st151{opacity:0.8049;fill:url(#SVGID_79_);}
	.st152{opacity:0.8293;fill:url(#SVGID_80_);}
	.st153{opacity:0.8537;fill:url(#SVGID_81_);}
	.st154{opacity:0.878;fill:url(#SVGID_82_);}
	.st155{opacity:0.9024;fill:url(#SVGID_83_);}
	.st156{opacity:0.9268;fill:url(#SVGID_84_);}
	.st157{opacity:0.9512;fill:url(#SVGID_85_);}
	.st158{opacity:0.9756;fill:url(#SVGID_86_);}
	.st159{fill:url(#SVGID_87_);}
	.st160{fill:url(#SVGID_88_);}
	.st161{opacity:1.408451e-02;}
	.st162{opacity:2.816901e-02;}
	.st163{opacity:4.225352e-02;}
	.st164{opacity:5.633803e-02;}
	.st165{opacity:7.042254e-02;}
	.st166{opacity:8.450704e-02;}
	.st167{opacity:9.859155e-02;}
	.st168{fill:url(#SVGID_89_);stroke:#FFFFFF;stroke-width:0.7398;stroke-miterlimit:10;}
	.st169{opacity:0;fill:url(#SVGID_90_);}
	.st170{opacity:2.439100e-02;fill:url(#SVGID_91_);}
	.st171{opacity:4.878100e-02;fill:url(#SVGID_92_);}
	.st172{opacity:7.317100e-02;fill:url(#SVGID_93_);}
	.st173{opacity:9.756100e-02;fill:url(#SVGID_94_);}
	.st174{opacity:0.122;fill:url(#SVGID_95_);}
	.st175{opacity:0.1463;fill:url(#SVGID_96_);}
	.st176{opacity:0.1707;fill:url(#SVGID_97_);}
	.st177{opacity:0.1951;fill:url(#SVGID_98_);}
	.st178{opacity:0.2195;fill:url(#SVGID_99_);}
	.st179{opacity:0.2439;fill:url(#SVGID_100_);}
	.st180{opacity:0.2683;fill:url(#SVGID_101_);}
	.st181{opacity:0.2927;fill:url(#SVGID_102_);}
	.st182{opacity:0.3171;fill:url(#SVGID_103_);}
	.st183{opacity:0.3415;fill:url(#SVGID_104_);}
	.st184{opacity:0.3659;fill:url(#SVGID_105_);}
	.st185{opacity:0.3902;fill:url(#SVGID_106_);}
	.st186{opacity:0.4146;fill:url(#SVGID_107_);}
	.st187{opacity:0.439;fill:url(#SVGID_108_);}
	.st188{opacity:0.4634;fill:url(#SVGID_109_);}
	.st189{opacity:0.4878;fill:url(#SVGID_110_);}
	.st190{opacity:0.5122;fill:url(#SVGID_111_);}
	.st191{opacity:0.5366;fill:url(#SVGID_112_);}
	.st192{opacity:0.561;fill:url(#SVGID_113_);}
	.st193{opacity:0.5854;fill:url(#SVGID_114_);}
	.st194{opacity:0.6098;fill:url(#SVGID_115_);}
	.st195{opacity:0.6341;fill:url(#SVGID_116_);}
	.st196{opacity:0.6585;fill:url(#SVGID_117_);}
	.st197{opacity:0.6829;fill:url(#SVGID_118_);}
	.st198{opacity:0.7073;fill:url(#SVGID_119_);}
	.st199{opacity:0.7317;fill:url(#SVGID_120_);}
	.st200{opacity:0.7561;fill:url(#SVGID_121_);}
	.st201{opacity:0.7805;fill:url(#SVGID_122_);}
	.st202{opacity:0.8049;fill:url(#SVGID_123_);}
	.st203{opacity:0.8293;fill:url(#SVGID_124_);}
	.st204{opacity:0.8537;fill:url(#SVGID_125_);}
	.st205{opacity:0.878;fill:url(#SVGID_126_);}
	.st206{opacity:0.9024;fill:url(#SVGID_127_);}
	.st207{opacity:0.9268;fill:url(#SVGID_128_);}
	.st208{opacity:0.9512;fill:url(#SVGID_129_);}
	.st209{opacity:0.9756;fill:url(#SVGID_130_);}
	.st210{fill:url(#SVGID_131_);}
	.st211{fill:url(#SVGID_132_);}
	.st212{fill:url(#SVGID_133_);stroke:#FFFFFF;stroke-width:0.7398;stroke-miterlimit:10;}
	.st213{opacity:0;fill:url(#SVGID_134_);}
	.st214{opacity:2.439100e-02;fill:url(#SVGID_135_);}
	.st215{opacity:4.878100e-02;fill:url(#SVGID_136_);}
	.st216{opacity:7.317100e-02;fill:url(#SVGID_137_);}
	.st217{opacity:9.756100e-02;fill:url(#SVGID_138_);}
	.st218{opacity:0.122;fill:url(#SVGID_139_);}
	.st219{opacity:0.1463;fill:url(#SVGID_140_);}
	.st220{opacity:0.1707;fill:url(#SVGID_141_);}
	.st221{opacity:0.1951;fill:url(#SVGID_142_);}
	.st222{opacity:0.2195;fill:url(#SVGID_143_);}
	.st223{opacity:0.2439;fill:url(#SVGID_144_);}
	.st224{opacity:0.2683;fill:url(#SVGID_145_);}
	.st225{opacity:0.2927;fill:url(#SVGID_146_);}
	.st226{opacity:0.3171;fill:url(#SVGID_147_);}
	.st227{opacity:0.3415;fill:url(#SVGID_148_);}
	.st228{opacity:0.3659;fill:url(#SVGID_149_);}
	.st229{opacity:0.3902;fill:url(#SVGID_150_);}
	.st230{opacity:0.4146;fill:url(#SVGID_151_);}
	.st231{opacity:0.439;fill:url(#SVGID_152_);}
	.st232{opacity:0.4634;fill:url(#SVGID_153_);}
	.st233{opacity:0.4878;fill:url(#SVGID_154_);}
	.st234{opacity:0.5122;fill:url(#SVGID_155_);}
	.st235{opacity:0.5366;fill:url(#SVGID_156_);}
	.st236{opacity:0.561;fill:url(#SVGID_157_);}
	.st237{opacity:0.5854;fill:url(#SVGID_158_);}
	.st238{opacity:0.6098;fill:url(#SVGID_159_);}
	.st239{opacity:0.6341;fill:url(#SVGID_160_);}
	.st240{opacity:0.6585;fill:url(#SVGID_161_);}
	.st241{opacity:0.6829;fill:url(#SVGID_162_);}
	.st242{opacity:0.7073;fill:url(#SVGID_163_);}
	.st243{opacity:0.7317;fill:url(#SVGID_164_);}
	.st244{opacity:0.7561;fill:url(#SVGID_165_);}
	.st245{opacity:0.7805;fill:url(#SVGID_166_);}
	.st246{opacity:0.8049;fill:url(#SVGID_167_);}
	.st247{opacity:0.8293;fill:url(#SVGID_168_);}
	.st248{opacity:0.8537;fill:url(#SVGID_169_);}
	.st249{opacity:0.878;fill:url(#SVGID_170_);}
	.st250{opacity:0.9024;fill:url(#SVGID_171_);}
	.st251{opacity:0.9268;fill:url(#SVGID_172_);}
	.st252{opacity:0.9512;fill:url(#SVGID_173_);}
	.st253{opacity:0.9756;fill:url(#SVGID_174_);}
	.st254{fill:url(#SVGID_175_);}
	.st255{fill:url(#SVGID_176_);}
	.st256{fill:url(#SVGID_177_);stroke:#FFFFFF;stroke-width:0.7398;stroke-miterlimit:10;}
	.st257{opacity:0;fill:url(#SVGID_178_);}
	.st258{opacity:2.439100e-02;fill:url(#SVGID_179_);}
	.st259{opacity:4.878100e-02;fill:url(#SVGID_180_);}
	.st260{opacity:7.317100e-02;fill:url(#SVGID_181_);}
	.st261{opacity:9.756100e-02;fill:url(#SVGID_182_);}
	.st262{opacity:0.122;fill:url(#SVGID_183_);}
	.st263{opacity:0.1463;fill:url(#SVGID_184_);}
	.st264{opacity:0.1707;fill:url(#SVGID_185_);}
	.st265{opacity:0.1951;fill:url(#SVGID_186_);}
	.st266{opacity:0.2195;fill:url(#SVGID_187_);}
	.st267{opacity:0.2439;fill:url(#SVGID_188_);}
	.st268{opacity:0.2683;fill:url(#SVGID_189_);}
	.st269{opacity:0.2927;fill:url(#SVGID_190_);}
	.st270{opacity:0.3171;fill:url(#SVGID_191_);}
	.st271{opacity:0.3415;fill:url(#SVGID_192_);}
	.st272{opacity:0.3659;fill:url(#SVGID_193_);}
	.st273{opacity:0.3902;fill:url(#SVGID_194_);}
	.st274{opacity:0.4146;fill:url(#SVGID_195_);}
	.st275{opacity:0.439;fill:url(#SVGID_196_);}
	.st276{opacity:0.4634;fill:url(#SVGID_197_);}
	.st277{opacity:0.4878;fill:url(#SVGID_198_);}
	.st278{opacity:0.5122;fill:url(#SVGID_199_);}
	.st279{opacity:0.5366;fill:url(#SVGID_200_);}
	.st280{opacity:0.561;fill:url(#SVGID_201_);}
	.st281{opacity:0.5854;fill:url(#SVGID_202_);}
	.st282{opacity:0.6098;fill:url(#SVGID_203_);}
	.st283{opacity:0.6341;fill:url(#SVGID_204_);}
	.st284{opacity:0.6585;fill:url(#SVGID_205_);}
	.st285{opacity:0.6829;fill:url(#SVGID_206_);}
	.st286{opacity:0.7073;fill:url(#SVGID_207_);}
	.st287{opacity:0.7317;fill:url(#SVGID_208_);}
	.st288{opacity:0.7561;fill:url(#SVGID_209_);}
	.st289{opacity:0.7805;fill:url(#SVGID_210_);}
	.st290{opacity:0.8049;fill:url(#SVGID_211_);}
	.st291{opacity:0.8293;fill:url(#SVGID_212_);}
	.st292{opacity:0.8537;fill:url(#SVGID_213_);}
	.st293{opacity:0.878;fill:url(#SVGID_214_);}
	.st294{opacity:0.9024;fill:url(#SVGID_215_);}
	.st295{opacity:0.9268;fill:url(#SVGID_216_);}
	.st296{opacity:0.9512;fill:url(#SVGID_217_);}
	.st297{opacity:0.9756;fill:url(#SVGID_218_);}
	.st298{fill:url(#SVGID_219_);}
	.st299{fill:url(#SVGID_220_);}
	.st300{fill:url(#SVGID_221_);stroke:#FFFFFF;stroke-width:0.7398;stroke-miterlimit:10;}
	.st301{opacity:0;fill:url(#SVGID_222_);}
	.st302{opacity:2.439100e-02;fill:url(#SVGID_223_);}
	.st303{opacity:4.878100e-02;fill:url(#SVGID_224_);}
	.st304{opacity:7.317100e-02;fill:url(#SVGID_225_);}
	.st305{opacity:9.756100e-02;fill:url(#SVGID_226_);}
	.st306{opacity:0.122;fill:url(#SVGID_227_);}
	.st307{opacity:0.1463;fill:url(#SVGID_228_);}
	.st308{opacity:0.1707;fill:url(#SVGID_229_);}
	.st309{opacity:0.1951;fill:url(#SVGID_230_);}
	.st310{opacity:0.2195;fill:url(#SVGID_231_);}
	.st311{opacity:0.2439;fill:url(#SVGID_232_);}
	.st312{opacity:0.2683;fill:url(#SVGID_233_);}
	.st313{opacity:0.2927;fill:url(#SVGID_234_);}
	.st314{opacity:0.3171;fill:url(#SVGID_235_);}
	.st315{opacity:0.3415;fill:url(#SVGID_236_);}
	.st316{opacity:0.3659;fill:url(#SVGID_237_);}
	.st317{opacity:0.3902;fill:url(#SVGID_238_);}
	.st318{opacity:0.4146;fill:url(#SVGID_239_);}
	.st319{opacity:0.439;fill:url(#SVGID_240_);}
	.st320{opacity:0.4634;fill:url(#SVGID_241_);}
	.st321{opacity:0.4878;fill:url(#SVGID_242_);}
	.st322{opacity:0.5122;fill:url(#SVGID_243_);}
	.st323{opacity:0.5366;fill:url(#SVGID_244_);}
	.st324{opacity:0.561;fill:url(#SVGID_245_);}
	.st325{opacity:0.5854;fill:url(#SVGID_246_);}
	.st326{opacity:0.6098;fill:url(#SVGID_247_);}
	.st327{opacity:0.6341;fill:url(#SVGID_248_);}
	.st328{opacity:0.6585;fill:url(#SVGID_249_);}
	.st329{opacity:0.6829;fill:url(#SVGID_250_);}
	.st330{opacity:0.7073;fill:url(#SVGID_251_);}
	.st331{opacity:0.7317;fill:url(#SVGID_252_);}
	.st332{opacity:0.7561;fill:url(#SVGID_253_);}
	.st333{opacity:0.7805;fill:url(#SVGID_254_);}
	.st334{opacity:0.8049;fill:url(#SVGID_255_);}
	.st335{opacity:0.8293;fill:url(#SVGID_256_);}
	.st336{opacity:0.8537;fill:url(#SVGID_257_);}
	.st337{opacity:0.878;fill:url(#SVGID_258_);}
	.st338{opacity:0.9024;fill:url(#SVGID_259_);}
	.st339{opacity:0.9268;fill:url(#SVGID_260_);}
	.st340{opacity:0.9512;fill:url(#SVGID_261_);}
	.st341{opacity:0.9756;fill:url(#SVGID_262_);}
	.st342{fill:url(#SVGID_263_);}
	.st343{fill:url(#SVGID_264_);}
	.st344{fill:url(#SVGID_265_);stroke:#FFFFFF;stroke-width:0.7398;stroke-miterlimit:10;}
	.st345{fill:url(#SVGID_266_);}
	.st346{fill:url(#SVGID_267_);}
	.st347{fill:url(#SVGID_268_);}
	.st348{fill:url(#SVGID_269_);}
	.st349{fill:url(#SVGID_270_);}
	.st350{fill:url(#SVGID_271_);}
	.st351{fill:url(#SVGID_272_);}
	.st352{fill:url(#SVGID_273_);}
	.st353{fill:url(#SVGID_274_);}
	.st354{fill:url(#SVGID_275_);}
	.st355{fill:url(#SVGID_276_);}
	.st356{fill:url(#SVGID_277_);}
	.st357{fill:url(#SVGID_278_);}
	.st358{fill:url(#SVGID_279_);}
	.st359{fill:url(#SVGID_280_);}
	.st360{fill:url(#SVGID_281_);}
	.st361{fill:url(#SVGID_282_);}
	.st362{fill:url(#SVGID_283_);}
	.st363{fill:url(#SVGID_284_);}
	.st364{fill:url(#SVGID_285_);}
</style>
<g class="st0">
	
		<radialGradient id="SVGID_1_" cx="-33.3849" cy="133.8958" r="4.9234" gradientTransform="matrix(7.1054 0 0 0.3658 274.7742 31.6474)" gradientUnits="userSpaceOnUse">
		<stop  offset="0" style="stop-color:#000000"/>
		<stop  offset="1" style="stop-color:#000000"/>
	</radialGradient>
	<ellipse class="st1" cx="37.6" cy="80.6" rx="29.9" ry="2"/>
	
		<radialGradient id="SVGID_2_" cx="-33.1758" cy="137.3412" r="4.9405" gradientTransform="matrix(6.9057 0 0 0.3561 266.6638 31.7193)" gradientUnits="userSpaceOnUse">
		<stop  offset="0" style="stop-color:#000000"/>
		<stop  offset="1" style="stop-color:#000000"/>
	</radialGradient>
	<ellipse class="st2" cx="37.6" cy="80.6" rx="29.2" ry="2"/>
	
		<radialGradient id="SVGID_3_" cx="-32.9509" cy="140.9818" r="4.9582" gradientTransform="matrix(6.706 0 0 0.3464 258.5302 31.7902)" gradientUnits="userSpaceOnUse">
		<stop  offset="0" style="stop-color:#000000"/>
		<stop  offset="1" style="stop-color:#000000"/>
	</radialGradient>
	<ellipse class="st3" cx="37.6" cy="80.6" rx="28.5" ry="1.9"/>
	
		<radialGradient id="SVGID_4_" cx="-32.7122" cy="144.8337" r="4.9767" gradientTransform="matrix(6.5063 0 0 0.3367 250.3965 31.861)" gradientUnits="userSpaceOnUse">
		<stop  offset="0" style="stop-color:#000000"/>
		<stop  offset="1" style="stop-color:#000000"/>
	</radialGradient>
	<ellipse class="st4" cx="37.6" cy="80.6" rx="27.8" ry="1.9"/>
	
		<radialGradient id="SVGID_5_" cx="-32.4583" cy="148.9148" r="4.997" gradientTransform="matrix(6.3066 0 0 0.327 242.2629 31.9314)" gradientUnits="userSpaceOnUse">
		<stop  offset="0" style="stop-color:#000000"/>
		<stop  offset="1" style="stop-color:#000000"/>
	</radialGradient>
	<ellipse class="st5" cx="37.6" cy="80.6" rx="27.1" ry="1.8"/>
	
		<radialGradient id="SVGID_6_" cx="-32.1878" cy="153.2415" r="5.0182" gradientTransform="matrix(6.1069 0 0 0.3173 234.1292 32.0028)" gradientUnits="userSpaceOnUse">
		<stop  offset="0" style="stop-color:#000000"/>
		<stop  offset="1" style="stop-color:#000000"/>
	</radialGradient>
	<ellipse class="st6" cx="37.6" cy="80.6" rx="26.4" ry="1.8"/>
	
		<radialGradient id="SVGID_7_" cx="-31.8991" cy="160.5396" r="5.0421" gradientTransform="matrix(5.9072 0 0 0.3075 225.9955 31.2604)" gradientUnits="userSpaceOnUse">
		<stop  offset="0" style="stop-color:#000000"/>
		<stop  offset="1" style="stop-color:#000000"/>
	</radialGradient>
	<ellipse class="st7" cx="37.6" cy="80.6" rx="25.7" ry="1.7"/>
	
		<radialGradient id="SVGID_8_" cx="-31.5901" cy="165.5308" r="5.0667" gradientTransform="matrix(5.7075 0 0 0.2978 217.8618 31.3312)" gradientUnits="userSpaceOnUse">
		<stop  offset="0" style="stop-color:#000000"/>
		<stop  offset="1" style="stop-color:#000000"/>
	</radialGradient>
	<ellipse class="st8" cx="37.6" cy="80.6" rx="25" ry="1.7"/>
	
		<radialGradient id="SVGID_9_" cx="-31.2587" cy="170.8579" r="5.092" gradientTransform="matrix(5.5078 0 0 0.2881 209.7281 31.4021)" gradientUnits="userSpaceOnUse">
		<stop  offset="0" style="stop-color:#000000"/>
		<stop  offset="1" style="stop-color:#000000"/>
	</radialGradient>
	<ellipse class="st9" cx="37.6" cy="80.6" rx="24.3" ry="1.6"/>
	
		<radialGradient id="SVGID_10_" cx="-30.9024" cy="176.5583" r="5.12" gradientTransform="matrix(5.3081 0 0 0.2784 201.5944 31.4724)" gradientUnits="userSpaceOnUse">
		<stop  offset="0" style="stop-color:#000000"/>
		<stop  offset="1" style="stop-color:#000000"/>
	</radialGradient>
	<ellipse class="st10" cx="37.6" cy="80.6" rx="23.6" ry="1.6"/>
	
		<radialGradient id="SVGID_11_" cx="-30.5182" cy="182.6683" r="5.1504" gradientTransform="matrix(5.1084 0 0 0.2687 193.4607 31.5433)" gradientUnits="userSpaceOnUse">
		<stop  offset="0" style="stop-color:#000000"/>
		<stop  offset="1" style="stop-color:#000000"/>
	</radialGradient>
	<ellipse class="st11" cx="37.6" cy="80.6" rx="22.9" ry="1.5"/>
	
		<radialGradient id="SVGID_12_" cx="-30.1028" cy="189.236" r="5.1829" gradientTransform="matrix(4.9087 0 0 0.259 185.327 31.6142)" gradientUnits="userSpaceOnUse">
		<stop  offset="0" style="stop-color:#000000"/>
		<stop  offset="1" style="stop-color:#000000"/>
	</radialGradient>
	<ellipse class="st12" cx="37.6" cy="80.6" rx="22.2" ry="1.5"/>
	
		<radialGradient id="SVGID_13_" cx="-29.6522" cy="196.3137" r="5.2178" gradientTransform="matrix(4.709 0 0 0.2493 177.1934 31.685)" gradientUnits="userSpaceOnUse">
		<stop  offset="0" style="stop-color:#000000"/>
		<stop  offset="1" style="stop-color:#000000"/>
	</radialGradient>
	<ellipse class="st13" cx="37.6" cy="80.6" rx="21.5" ry="1.4"/>
	
		<radialGradient id="SVGID_14_" cx="-29.1616" cy="203.9666" r="5.2556" gradientTransform="matrix(4.5093 0 0 0.2396 169.0597 31.7559)" gradientUnits="userSpaceOnUse">
		<stop  offset="0" style="stop-color:#000000"/>
		<stop  offset="1" style="stop-color:#000000"/>
	</radialGradient>
	<ellipse class="st14" cx="37.6" cy="80.6" rx="20.8" ry="1.4"/>
	
		<radialGradient id="SVGID_15_" cx="-28.6255" cy="212.2664" r="5.2972" gradientTransform="matrix(4.3096 0 0 0.2299 160.926 31.8262)" gradientUnits="userSpaceOnUse">
		<stop  offset="0" style="stop-color:#000000"/>
		<stop  offset="1" style="stop-color:#000000"/>
	</radialGradient>
	<ellipse class="st15" cx="37.6" cy="80.6" rx="20.1" ry="1.3"/>
	
		<radialGradient id="SVGID_16_" cx="-28.0374" cy="221.2917" r="5.3423" gradientTransform="matrix(4.1099 0 0 0.2202 152.7923 31.8976)" gradientUnits="userSpaceOnUse">
		<stop  offset="0" style="stop-color:#000000"/>
		<stop  offset="1" style="stop-color:#000000"/>
	</radialGradient>
	<ellipse class="st16" cx="37.6" cy="80.6" rx="19.4" ry="1.3"/>
	
		<radialGradient id="SVGID_17_" cx="-27.3892" cy="235.1275" r="5.3938" gradientTransform="matrix(3.9102 0 0 0.2104 144.6586 31.1552)" gradientUnits="userSpaceOnUse">
		<stop  offset="0" style="stop-color:#000000"/>
		<stop  offset="1" style="stop-color:#000000"/>
	</radialGradient>
	<ellipse class="st17" cx="37.6" cy="80.6" rx="18.7" ry="1.3"/>
	
		<radialGradient id="SVGID_18_" cx="-26.6712" cy="246.1383" r="5.4492" gradientTransform="matrix(3.7105 0 0 0.2007 136.5249 31.2261)" gradientUnits="userSpaceOnUse">
		<stop  offset="0" style="stop-color:#000000"/>
		<stop  offset="1" style="stop-color:#000000"/>
	</radialGradient>
	<ellipse class="st18" cx="37.6" cy="80.6" rx="18" ry="1.2"/>
	
		<radialGradient id="SVGID_19_" cx="-25.8716" cy="258.267" r="5.5093" gradientTransform="matrix(3.5108 0 0 0.191 128.3913 31.297)" gradientUnits="userSpaceOnUse">
		<stop  offset="0" style="stop-color:#000000"/>
		<stop  offset="1" style="stop-color:#000000"/>
	</radialGradient>
	<ellipse class="st19" cx="37.6" cy="80.6" rx="17.2" ry="1.2"/>
	
		<radialGradient id="SVGID_20_" cx="-24.9754" cy="271.6969" r="5.5776" gradientTransform="matrix(3.3111 0 0 0.1813 120.2576 31.3674)" gradientUnits="userSpaceOnUse">
		<stop  offset="0" style="stop-color:#000000"/>
		<stop  offset="1" style="stop-color:#000000"/>
	</radialGradient>
	<ellipse class="st20" cx="37.6" cy="80.6" rx="16.5" ry="1.1"/>
	
		<radialGradient id="SVGID_21_" cx="-23.9643" cy="286.6421" r="5.6546" gradientTransform="matrix(3.1114 0 0 0.1716 112.124 31.4382)" gradientUnits="userSpaceOnUse">
		<stop  offset="0" style="stop-color:#000000"/>
		<stop  offset="1" style="stop-color:#000000"/>
	</radialGradient>
	<ellipse class="st21" cx="37.6" cy="80.6" rx="15.8" ry="1.1"/>
	
		<radialGradient id="SVGID_22_" cx="-22.8145" cy="303.3766" r="5.7406" gradientTransform="matrix(2.9117 0 0 0.1619 103.9903 31.5091)" gradientUnits="userSpaceOnUse">
		<stop  offset="0" style="stop-color:#000000"/>
		<stop  offset="1" style="stop-color:#000000"/>
	</radialGradient>
	<ellipse class="st22" cx="37.6" cy="80.6" rx="15.1" ry="1"/>
	
		<radialGradient id="SVGID_23_" cx="-21.4949" cy="322.2425" r="5.8394" gradientTransform="matrix(2.712 0 0 0.1522 95.8556 31.5805)" gradientUnits="userSpaceOnUse">
		<stop  offset="0" style="stop-color:#000000"/>
		<stop  offset="1" style="stop-color:#000000"/>
	</radialGradient>
	<ellipse class="st23" cx="37.6" cy="80.6" rx="14.4" ry="1"/>
	
		<radialGradient id="SVGID_24_" cx="-19.9652" cy="343.6874" r="5.9535" gradientTransform="matrix(2.5123 0 0 0.1425 87.72 31.6503)" gradientUnits="userSpaceOnUse">
		<stop  offset="0" style="stop-color:#000000"/>
		<stop  offset="1" style="stop-color:#000000"/>
	</radialGradient>
	<ellipse class="st24" cx="37.6" cy="80.6" rx="13.7" ry="0.9"/>
	
		<radialGradient id="SVGID_25_" cx="-18.1713" cy="368.2574" r="6.0842" gradientTransform="matrix(2.3126 0 0 0.1328 79.5843 31.7212)" gradientUnits="userSpaceOnUse">
		<stop  offset="0" style="stop-color:#000000"/>
		<stop  offset="1" style="stop-color:#000000"/>
	</radialGradient>
	<ellipse class="st25" cx="37.6" cy="80.6" rx="13" ry="0.9"/>
	
		<radialGradient id="SVGID_26_" cx="-16.0383" cy="396.7037" r="6.2402" gradientTransform="matrix(2.1129 0 0 0.1231 71.4487 31.7915)" gradientUnits="userSpaceOnUse">
		<stop  offset="0" style="stop-color:#000000"/>
		<stop  offset="1" style="stop-color:#000000"/>
	</radialGradient>
	<ellipse class="st26" cx="37.6" cy="80.6" rx="12.3" ry="0.8"/>
	
		<radialGradient id="SVGID_27_" cx="-13.46" cy="437.5651" r="6.4304" gradientTransform="matrix(1.9132 0 0 0.1133 63.313 31.0497)" gradientUnits="userSpaceOnUse">
		<stop  offset="0" style="stop-color:#000000"/>
		<stop  offset="1" style="stop-color:#000000"/>
	</radialGradient>
	<ellipse class="st27" cx="37.6" cy="80.6" rx="11.6" ry="0.8"/>
	
		<radialGradient id="SVGID_28_" cx="-10.2807" cy="477.8433" r="6.657" gradientTransform="matrix(1.7135 0 0 0.1036 55.1774 31.121)" gradientUnits="userSpaceOnUse">
		<stop  offset="0" style="stop-color:#000000"/>
		<stop  offset="1" style="stop-color:#000000"/>
	</radialGradient>
	<ellipse class="st28" cx="37.6" cy="80.6" rx="10.9" ry="0.7"/>
	
		<radialGradient id="SVGID_29_" cx="-6.2626" cy="526.4606" r="6.9414" gradientTransform="matrix(1.5138 0 0 9.390000e-02 47.0418 31.1909)" gradientUnits="userSpaceOnUse">
		<stop  offset="0" style="stop-color:#000000"/>
		<stop  offset="1" style="stop-color:#000000"/>
	</radialGradient>
	<ellipse class="st29" cx="37.6" cy="80.6" rx="10.2" ry="0.7"/>
	
		<radialGradient id="SVGID_30_" cx="-1.0233" cy="586.2713" r="7.3054" gradientTransform="matrix(1.3141 0 0 8.420000e-02 38.9061 31.2617)" gradientUnits="userSpaceOnUse">
		<stop  offset="0" style="stop-color:#000000"/>
		<stop  offset="1" style="stop-color:#000000"/>
	</radialGradient>
	<ellipse class="st30" cx="37.6" cy="80.6" rx="9.5" ry="0.6"/>
	
		<radialGradient id="SVGID_31_" cx="6.0936" cy="661.6569" r="7.7907" gradientTransform="matrix(1.1144 0 0 7.450000e-02 30.7707 31.3321)" gradientUnits="userSpaceOnUse">
		<stop  offset="0" style="stop-color:#000000"/>
		<stop  offset="1" style="stop-color:#000000"/>
	</radialGradient>
	<ellipse class="st31" cx="37.6" cy="80.6" rx="8.8" ry="0.6"/>
	
		<radialGradient id="SVGID_32_" cx="16.3183" cy="759.6061" r="8.4765" gradientTransform="matrix(0.9147 0 0 6.480000e-02 22.6351 31.4031)" gradientUnits="userSpaceOnUse">
		<stop  offset="0" style="stop-color:#000000"/>
		<stop  offset="1" style="stop-color:#000000"/>
	</radialGradient>
	<ellipse class="st32" cx="37.6" cy="80.6" rx="8.1" ry="0.5"/>
	
		<radialGradient id="SVGID_33_" cx="32.2545" cy="892.0447" r="9.5199" gradientTransform="matrix(0.715 0 0 5.510000e-02 14.4994 31.4739)" gradientUnits="userSpaceOnUse">
		<stop  offset="0" style="stop-color:#000000"/>
		<stop  offset="1" style="stop-color:#000000"/>
	</radialGradient>
	<ellipse class="st33" cx="37.6" cy="80.6" rx="7.4" ry="0.5"/>
	
		<radialGradient id="SVGID_34_" cx="60.5419" cy="1081.0848" r="11.3254" gradientTransform="matrix(0.5153 0 0 4.540000e-02 6.3641 31.5443)" gradientUnits="userSpaceOnUse">
		<stop  offset="0" style="stop-color:#000000"/>
		<stop  offset="1" style="stop-color:#000000"/>
	</radialGradient>
	<ellipse class="st34" cx="37.6" cy="80.6" rx="6.7" ry="0.4"/>
	
		<radialGradient id="SVGID_35_" cx="124.6276" cy="1372.8262" r="15.3318" gradientTransform="matrix(0.3156 0 0 3.570000e-02 -1.7711 31.6156)" gradientUnits="userSpaceOnUse">
		<stop  offset="0" style="stop-color:#000000"/>
		<stop  offset="1" style="stop-color:#000000"/>
	</radialGradient>
	<ellipse class="st35" cx="37.6" cy="80.6" rx="6" ry="0.4"/>
	
		<radialGradient id="SVGID_36_" cx="409.565" cy="1882.3109" r="33.3222" gradientTransform="matrix(0.1159 0 0 2.600000e-02 -9.9072 31.6855)" gradientUnits="userSpaceOnUse">
		<stop  offset="0" style="stop-color:#000000"/>
		<stop  offset="1" style="stop-color:#000000"/>
	</radialGradient>
	<ellipse class="st36" cx="37.6" cy="80.6" rx="5.3" ry="0.3"/>
	
		<radialGradient id="SVGID_37_" cx="-663.5295" cy="3066.7856" r="40.3563" gradientTransform="matrix(-8.380000e-02 0 0 1.620000e-02 -18.0424 30.9436)" gradientUnits="userSpaceOnUse">
		<stop  offset="0" style="stop-color:#000000"/>
		<stop  offset="1" style="stop-color:#000000"/>
	</radialGradient>
	<ellipse class="st37" cx="37.6" cy="80.6" rx="4.6" ry="0.3"/>
	
		<radialGradient id="SVGID_38_" cx="-224.83" cy="7632.4336" r="27.2459" gradientTransform="matrix(-0.2835 0 0 6.500000e-03 -26.178 31.0145)" gradientUnits="userSpaceOnUse">
		<stop  offset="0" style="stop-color:#000000"/>
		<stop  offset="1" style="stop-color:#000000"/>
	</radialGradient>
	<ellipse class="st38" cx="37.6" cy="80.6" rx="3.8" ry="0.2"/>
	
		<radialGradient id="SVGID_39_" cx="-148.748" cy="-15481.4082" r="41.3681" gradientTransform="matrix(-0.4832 0 0 -3.200000e-03 -34.3137 31.0848)" gradientUnits="userSpaceOnUse">
		<stop  offset="0" style="stop-color:#000000"/>
		<stop  offset="1" style="stop-color:#000000"/>
	</radialGradient>
	<ellipse class="st39" cx="37.6" cy="80.6" rx="3.1" ry="0.2"/>
	
		<radialGradient id="SVGID_40_" cx="-117.1631" cy="-3834.9106" r="7.9456" gradientTransform="matrix(-0.6829 0 0 -1.290000e-02 -42.4492 31.1552)" gradientUnits="userSpaceOnUse">
		<stop  offset="0" style="stop-color:#000000"/>
		<stop  offset="1" style="stop-color:#000000"/>
	</radialGradient>
	<ellipse class="st40" cx="37.6" cy="80.6" rx="2.4" ry="0.1"/>
	
		<radialGradient id="SVGID_41_" cx="-99.8711" cy="-2185.8091" r="3.107" gradientTransform="matrix(-0.8826 0 0 -2.260000e-02 -50.5848 31.226)" gradientUnits="userSpaceOnUse">
		<stop  offset="0" style="stop-color:#000000"/>
		<stop  offset="1" style="stop-color:#000000"/>
	</radialGradient>
	<ellipse class="st41" cx="37.6" cy="80.6" rx="1.7" ry="0.1"/>
	
		<radialGradient id="SVGID_42_" cx="-88.9605" cy="-1527.1943" r="1.1118" gradientTransform="matrix(-1.0823 0 0 -3.230000e-02 -58.7205 31.2969)" gradientUnits="userSpaceOnUse">
		<stop  offset="0" style="stop-color:#000000"/>
		<stop  offset="1" style="stop-color:#000000"/>
	</radialGradient>
	<ellipse class="st42" cx="37.6" cy="80.6" rx="1" ry="0"/>
</g>
<linearGradient id="SVGID_43_" gradientUnits="userSpaceOnUse" x1="367.685" y1="238.0323" x2="434.4077" y2="238.0323" gradientTransform="matrix(-0.1322 0.9912 -0.9912 -0.1322 326.5721 -322.7436)">
	<stop  offset="0" style="stop-color:#8FE0FF"/>
	<stop  offset="1" style="stop-color:#0982CC"/>
</linearGradient>
<path class="st43" d="M70.4,47.7c2.4-18.3-10.4-35-28.7-37.5L9.3,5.9C14.8,17,9.4,28.1,6.1,35.7C4.3,40,3.7,44.9,4.6,49.5
	C7.2,63.3,18.3,74.4,33,76.4C51.2,78.8,68,66,70.4,47.7z"/>
<g class="st44">
	<path class="st45" d="M40.3,73.4c-15.8,0-28.6-12.9-28.6-28.6c0-15.8,12.9-28.6,28.6-28.6S68.9,29,68.9,44.8
		C68.9,60.6,56.1,73.4,40.3,73.4z"/>
	<path class="st46" d="M40.2,73.4c-15.8,0-28.6-12.8-28.6-28.6c0-15.8,12.8-28.6,28.6-28.6C56,16.1,68.9,29,68.9,44.8
		C68.9,60.5,56,73.4,40.2,73.4z"/>
	<path class="st47" d="M40.2,73.4c-15.8,0-28.6-12.8-28.6-28.6c0-15.8,12.8-28.6,28.6-28.6C56,16.1,68.8,29,68.8,44.7
		C68.8,60.5,56,73.4,40.2,73.4z"/>
	<path class="st48" d="M40.1,73.3c-15.8,0-28.6-12.8-28.6-28.6c0-15.8,12.8-28.6,28.6-28.6c15.8,0,28.6,12.8,28.6,28.6
		C68.7,60.5,55.9,73.3,40.1,73.3z"/>
	<path class="st49" d="M40.1,73.3c-15.8,0-28.6-12.8-28.6-28.6c0-15.8,12.8-28.6,28.6-28.6c15.8,0,28.6,12.8,28.6,28.6
		C68.7,60.5,55.9,73.3,40.1,73.3z"/>
	<path class="st50" d="M40.1,73.2c-15.7,0-28.6-12.8-28.6-28.6c0-15.8,12.8-28.6,28.6-28.6s28.6,12.8,28.6,28.6
		C68.6,60.4,55.8,73.2,40.1,73.2z"/>
	<path class="st51" d="M40,73.2c-15.7,0-28.5-12.8-28.5-28.5c0-15.7,12.8-28.5,28.5-28.5s28.5,12.8,28.5,28.5
		C68.6,60.4,55.8,73.2,40,73.2z"/>
	<path class="st52" d="M40,73.2c-15.7,0-28.5-12.8-28.5-28.5c0-15.7,12.8-28.5,28.5-28.5c15.7,0,28.5,12.8,28.5,28.5
		C68.5,60.4,55.7,73.2,40,73.2z"/>
	<path class="st53" d="M40,73.1c-15.7,0-28.5-12.8-28.5-28.5c0-15.7,12.8-28.5,28.5-28.5c15.7,0,28.5,12.8,28.5,28.5
		C68.5,60.4,55.7,73.1,40,73.1z"/>
	<path class="st54" d="M39.9,73.1c-15.7,0-28.5-12.8-28.5-28.5c0-15.7,12.8-28.5,28.5-28.5c15.7,0,28.5,12.8,28.5,28.5
		C68.4,60.3,55.6,73.1,39.9,73.1z"/>
	<path class="st55" d="M39.9,73.1c-15.7,0-28.5-12.8-28.5-28.5c0-15.7,12.8-28.5,28.5-28.5c15.7,0,28.5,12.8,28.5,28.5
		C68.4,60.3,55.6,73.1,39.9,73.1z"/>
	<path class="st56" d="M39.8,73c-15.7,0-28.5-12.8-28.5-28.5c0-15.7,12.8-28.5,28.5-28.5s28.5,12.8,28.5,28.5
		C68.3,60.3,55.5,73,39.8,73z"/>
	<path class="st57" d="M39.8,73c-15.7,0-28.5-12.8-28.5-28.4c0-15.7,12.8-28.4,28.5-28.4c15.7,0,28.4,12.8,28.4,28.4
		C68.2,60.2,55.5,73,39.8,73z"/>
	<path class="st58" d="M39.8,73c-15.7,0-28.4-12.8-28.4-28.4c0-15.7,12.8-28.4,28.4-28.4c15.7,0,28.4,12.8,28.4,28.4
		C68.2,60.2,55.4,73,39.8,73z"/>
	<path class="st59" d="M39.7,72.9c-15.7,0-28.4-12.7-28.4-28.4c0-15.7,12.7-28.4,28.4-28.4c15.7,0,28.4,12.7,28.4,28.4
		C68.1,60.2,55.4,72.9,39.7,72.9z"/>
	<path class="st60" d="M39.7,72.9c-15.7,0-28.4-12.7-28.4-28.4c0-15.7,12.7-28.4,28.4-28.4c15.7,0,28.4,12.7,28.4,28.4
		C68.1,60.2,55.3,72.9,39.7,72.9z"/>
	<path class="st61" d="M39.6,72.9c-15.7,0-28.4-12.7-28.4-28.4c0-15.7,12.7-28.4,28.4-28.4C55.3,16.1,68,28.8,68,44.5
		C68,60.1,55.3,72.9,39.6,72.9z"/>
	<path class="st62" d="M39.6,72.8c-15.6,0-28.4-12.7-28.4-28.4c0-15.6,12.7-28.4,28.4-28.4C55.2,16.1,68,28.8,68,44.5
		C68,60.1,55.2,72.8,39.6,72.8z"/>
	<path class="st63" d="M39.6,72.8c-15.6,0-28.4-12.7-28.4-28.4c0-15.6,12.7-28.4,28.4-28.4s28.4,12.7,28.4,28.4
		C67.9,60.1,55.2,72.8,39.6,72.8z"/>
	<path class="st64" d="M39.5,72.8c-15.6,0-28.3-12.7-28.3-28.3c0-15.6,12.7-28.3,28.3-28.3c15.6,0,28.3,12.7,28.3,28.3
		C67.9,60.1,55.1,72.8,39.5,72.8z"/>
	<path class="st65" d="M39.5,72.7c-15.6,0-28.3-12.7-28.3-28.3c0-15.6,12.7-28.3,28.3-28.3c15.6,0,28.3,12.7,28.3,28.3
		C67.8,60,55.1,72.7,39.5,72.7z"/>
	<path class="st66" d="M39.4,72.7c-15.6,0-28.3-12.7-28.3-28.3c0-15.6,12.7-28.3,28.3-28.3c15.6,0,28.3,12.7,28.3,28.3
		C67.7,60,55.1,72.7,39.4,72.7z"/>
	<path class="st67" d="M39.4,72.7c-15.6,0-28.3-12.7-28.3-28.3c0-15.6,12.7-28.3,28.3-28.3c15.6,0,28.3,12.7,28.3,28.3
		C67.7,60,55,72.7,39.4,72.7z"/>
	<path class="st68" d="M39.4,72.6c-15.6,0-28.3-12.7-28.3-28.3c0-15.6,12.7-28.3,28.3-28.3c15.6,0,28.3,12.7,28.3,28.3
		C67.6,59.9,55,72.6,39.4,72.6z"/>
	<path class="st69" d="M39.3,72.6c-15.6,0-28.3-12.7-28.3-28.3c0-15.6,12.7-28.3,28.3-28.3s28.3,12.7,28.3,28.3
		C67.6,59.9,54.9,72.6,39.3,72.6z"/>
	<path class="st70" d="M39.3,72.6c-15.6,0-28.2-12.7-28.2-28.2c0-15.6,12.7-28.2,28.2-28.2c15.6,0,28.2,12.7,28.2,28.2
		C67.5,59.9,54.9,72.6,39.3,72.6z"/>
	<path class="st71" d="M39.3,72.5C23.7,72.5,11,59.9,11,44.3c0-15.6,12.7-28.2,28.2-28.2c15.6,0,28.2,12.7,28.2,28.2
		C67.5,59.9,54.8,72.5,39.3,72.5z"/>
	<path class="st72" d="M39.2,72.5C23.7,72.5,11,59.8,11,44.3c0-15.6,12.7-28.2,28.2-28.2c15.6,0,28.2,12.7,28.2,28.2
		C67.4,59.8,54.8,72.5,39.2,72.5z"/>
	<path class="st73" d="M39.2,72.5C23.6,72.5,11,59.8,11,44.3c0-15.5,12.6-28.2,28.2-28.2c15.5,0,28.2,12.6,28.2,28.2
		C67.4,59.8,54.7,72.5,39.2,72.5z"/>
	<path class="st74" d="M39.1,72.4C23.6,72.4,11,59.8,11,44.3c0-15.5,12.6-28.2,28.2-28.2s28.2,12.6,28.2,28.2
		C67.3,59.8,54.7,72.4,39.1,72.4z"/>
	<path class="st75" d="M39.1,72.4c-15.5,0-28.2-12.6-28.2-28.2c0-15.5,12.6-28.2,28.2-28.2s28.2,12.6,28.2,28.2
		C67.3,59.8,54.6,72.4,39.1,72.4z"/>
	<path class="st76" d="M39.1,72.4c-15.5,0-28.1-12.6-28.1-28.1c0-15.5,12.6-28.1,28.1-28.1s28.1,12.6,28.1,28.1
		C67.2,59.7,54.6,72.4,39.1,72.4z"/>
	<path class="st77" d="M39,72.3c-15.5,0-28.1-12.6-28.1-28.1c0-15.5,12.6-28.1,28.1-28.1c15.5,0,28.1,12.6,28.1,28.1
		C67.1,59.7,54.5,72.3,39,72.3z"/>
	<path class="st78" d="M39,72.3c-15.5,0-28.1-12.6-28.1-28.1c0-15.5,12.6-28.1,28.1-28.1c15.5,0,28.1,12.6,28.1,28.1
		C67.1,59.7,54.5,72.3,39,72.3z"/>
	<path class="st79" d="M38.9,72.3c-15.5,0-28.1-12.6-28.1-28.1c0-15.5,12.6-28.1,28.1-28.1C54.4,16.1,67,28.7,67,44.2
		C67,59.7,54.4,72.3,38.9,72.3z"/>
	<path class="st80" d="M38.9,72.2c-15.5,0-28.1-12.6-28.1-28.1c0-15.5,12.6-28.1,28.1-28.1C54.4,16.1,67,28.7,67,44.1
		C67,59.6,54.4,72.2,38.9,72.2z"/>
	<path class="st81" d="M38.9,72.2c-15.5,0-28.1-12.6-28.1-28.1c0-15.5,12.6-28.1,28.1-28.1c15.5,0,28.1,12.6,28.1,28.1
		C66.9,59.6,54.3,72.2,38.9,72.2z"/>
	<path class="st82" d="M38.8,72.1c-15.5,0-28-12.6-28-28c0-15.5,12.6-28,28-28c15.5,0,28,12.6,28,28C66.9,59.6,54.3,72.1,38.8,72.1z
		"/>
	<path class="st83" d="M38.8,72.1c-15.5,0-28-12.6-28-28c0-15.5,12.6-28,28-28c15.5,0,28,12.6,28,28C66.8,59.5,54.2,72.1,38.8,72.1z
		"/>
	<path class="st84" d="M38.7,72.1c-15.4,0-28-12.6-28-28c0-15.4,12.6-28,28-28c15.4,0,28,12.6,28,28C66.8,59.5,54.2,72.1,38.7,72.1z
		"/>
	<path class="st85" d="M38.7,72c-15.4,0-28-12.6-28-28c0-15.4,12.6-28,28-28c15.4,0,28,12.6,28,28C66.7,59.5,54.1,72,38.7,72z"/>
	<path class="st86" d="M38.7,72c-15.4,0-28-12.6-28-28c0-15.4,12.5-28,28-28c15.4,0,28,12.5,28,28C66.6,59.5,54.1,72,38.7,72z"/>
	<path class="st87" d="M38.6,72c-15.4,0-28-12.5-28-28c0-15.4,12.5-28,28-28c15.4,0,28,12.5,28,28C66.6,59.4,54,72,38.6,72z"/>
	<path class="st88" d="M38.6,71.9c-15.4,0-27.9-12.5-27.9-27.9c0-15.4,12.5-27.9,27.9-27.9C54,16.1,66.5,28.6,66.5,44
		C66.5,59.4,54,71.9,38.6,71.9z"/>
	<path class="st89" d="M38.6,71.9c-15.4,0-27.9-12.5-27.9-27.9c0-15.4,12.5-27.9,27.9-27.9S66.5,28.6,66.5,44
		C66.5,59.4,54,71.9,38.6,71.9z"/>
	<path class="st90" d="M38.5,71.9c-15.4,0-27.9-12.5-27.9-27.9c0-15.4,12.5-27.9,27.9-27.9c15.4,0,27.9,12.5,27.9,27.9
		C66.4,59.4,53.9,71.9,38.5,71.9z"/>
	<path class="st91" d="M38.5,71.8c-15.4,0-27.9-12.5-27.9-27.9c0-15.4,12.5-27.9,27.9-27.9c15.4,0,27.9,12.5,27.9,27.9
		C66.4,59.3,53.9,71.8,38.5,71.8z"/>
	<path class="st92" d="M38.4,71.8c-15.4,0-27.9-12.5-27.9-27.9C10.6,28.6,23.1,16,38.4,16c15.4,0,27.9,12.5,27.9,27.9
		C66.3,59.3,53.8,71.8,38.4,71.8z"/>
	<path class="st93" d="M38.4,71.8c-15.4,0-27.9-12.5-27.9-27.9C10.5,28.5,23,16,38.4,16s27.9,12.5,27.9,27.9
		C66.3,59.3,53.8,71.8,38.4,71.8z"/>
	<path class="st94" d="M38.4,71.7c-15.4,0-27.8-12.5-27.8-27.8C10.5,28.5,23,16,38.4,16c15.4,0,27.8,12.5,27.8,27.8
		C66.2,59.2,53.7,71.7,38.4,71.7z"/>
	<path class="st95" d="M38.3,71.7c-15.3,0-27.8-12.5-27.8-27.8C10.5,28.5,23,16,38.3,16s27.8,12.5,27.8,27.8
		C66.1,59.2,53.7,71.7,38.3,71.7z"/>
	<path class="st96" d="M38.3,71.7c-15.3,0-27.8-12.5-27.8-27.8C10.5,28.5,22.9,16,38.3,16c15.3,0,27.8,12.5,27.8,27.8
		C66.1,59.2,53.6,71.7,38.3,71.7z"/>
	<path class="st97" d="M38.2,71.6c-15.3,0-27.8-12.5-27.8-27.8C10.4,28.5,22.9,16,38.2,16C53.6,16,66,28.5,66,43.8
		C66,59.2,53.6,71.6,38.2,71.6z"/>
	<path class="st98" d="M38.2,71.6c-15.3,0-27.8-12.5-27.8-27.8C10.4,28.5,22.9,16,38.2,16C53.5,16,66,28.5,66,43.8
		C66,59.1,53.5,71.6,38.2,71.6z"/>
	<path class="st99" d="M38.2,71.6c-15.3,0-27.8-12.5-27.8-27.8C10.4,28.5,22.9,16,38.2,16s27.8,12.5,27.8,27.8
		C65.9,59.1,53.5,71.6,38.2,71.6z"/>
	<path class="st100" d="M38.1,71.5c-15.3,0-27.7-12.4-27.7-27.7C10.4,28.5,22.8,16,38.1,16c15.3,0,27.7,12.4,27.7,27.7
		C65.9,59.1,53.4,71.5,38.1,71.5z"/>
	<path class="st101" d="M38.1,71.5c-15.3,0-27.7-12.4-27.7-27.7C10.4,28.5,22.8,16,38.1,16c15.3,0,27.7,12.4,27.7,27.7
		C65.8,59.1,53.4,71.5,38.1,71.5z"/>
	<path class="st102" d="M38,71.5c-15.3,0-27.7-12.4-27.7-27.7C10.3,28.5,22.8,16,38,16c15.3,0,27.7,12.4,27.7,27.7
		C65.8,59,53.3,71.5,38,71.5z"/>
	<path class="st103" d="M38,71.4c-15.3,0-27.7-12.4-27.7-27.7C10.3,28.5,22.7,16,38,16c15.3,0,27.7,12.4,27.7,27.7
		C65.7,59,53.3,71.4,38,71.4z"/>
	<path class="st104" d="M38,71.4c-15.3,0-27.7-12.4-27.7-27.7C10.3,28.4,22.7,16,38,16c15.3,0,27.7,12.4,27.7,27.7
		C65.7,59,53.2,71.4,38,71.4z"/>
	<path class="st105" d="M37.9,71.4c-15.3,0-27.7-12.4-27.7-27.7C10.3,28.4,22.7,16,37.9,16c15.3,0,27.7,12.4,27.7,27.7
		C65.6,58.9,53.2,71.4,37.9,71.4z"/>
	<path class="st106" d="M37.9,71.3c-15.2,0-27.7-12.4-27.7-27.6C10.2,28.4,22.6,16,37.9,16c15.2,0,27.6,12.4,27.6,27.7
		C65.5,58.9,53.1,71.3,37.9,71.3z"/>
	<path class="st107" d="M37.9,71.3c-15.2,0-27.6-12.4-27.6-27.6C10.2,28.4,22.6,16,37.9,16s27.6,12.4,27.6,27.6
		C65.5,58.9,53.1,71.3,37.9,71.3z"/>
	<path class="st108" d="M37.8,71.3c-15.2,0-27.6-12.4-27.6-27.6C10.2,28.4,22.6,16,37.8,16C53,16,65.4,28.4,65.4,43.6
		C65.4,58.9,53,71.3,37.8,71.3z"/>
	<path class="st109" d="M37.8,71.2c-15.2,0-27.6-12.4-27.6-27.6C10.2,28.4,22.6,16,37.8,16C53,16,65.4,28.4,65.4,43.6
		C65.4,58.8,53,71.2,37.8,71.2z"/>
	<path class="st110" d="M37.7,71.2c-15.2,0-27.6-12.4-27.6-27.6C10.2,28.4,22.5,16,37.7,16c15.2,0,27.6,12.4,27.6,27.6
		C65.3,58.8,52.9,71.2,37.7,71.2z"/>
	<path class="st111" d="M37.7,71.2c-15.2,0-27.6-12.4-27.6-27.6C10.1,28.4,22.5,16,37.7,16c15.2,0,27.6,12.4,27.6,27.6
		C65.3,58.8,52.9,71.2,37.7,71.2z"/>
	<path class="st112" d="M37.7,71.1c-15.2,0-27.6-12.4-27.6-27.6C10.1,28.4,22.5,16,37.7,16c15.2,0,27.6,12.4,27.6,27.6
		C65.2,58.8,52.9,71.1,37.7,71.1z"/>
	<path class="st113" d="M37.6,71.1c-15.2,0-27.5-12.4-27.5-27.5C10.1,28.4,22.4,16,37.6,16c15.2,0,27.5,12.4,27.5,27.5
		C65.2,58.7,52.8,71.1,37.6,71.1z"/>
	<path class="st114" d="M37.6,71.1c-15.2,0-27.5-12.3-27.5-27.5C10.1,28.4,22.4,16,37.6,16c15.2,0,27.5,12.3,27.5,27.5
		C65.1,58.7,52.8,71.1,37.6,71.1z"/>
	<path class="st115" d="M37.5,71C22.4,71,10,58.7,10,43.5C10,28.3,22.4,16,37.5,16C52.7,16,65,28.3,65,43.5C65,58.7,52.7,71,37.5,71
		z"/>
	<path d="M37.5,71C22.3,71,10,58.7,10,43.5C10,28.3,22.3,16,37.5,16C52.7,16,65,28.3,65,43.5C65,58.7,52.7,71,37.5,71z"/>
</g>
<linearGradient id="SVGID_44_" gradientUnits="userSpaceOnUse" x1="18.2341" y1="24.5073" x2="57.0884" y2="63.3616">
	<stop  offset="0" style="stop-color:#C3C4C3"/>
	<stop  offset="0.2166" style="stop-color:#DADADA"/>
	<stop  offset="0.4838" style="stop-color:#EEEFEE"/>
	<stop  offset="0.7471" style="stop-color:#FBFBFB"/>
	<stop  offset="1" style="stop-color:#FFFFFF"/>
</linearGradient>
<path class="st116" d="M37.5,71.3C22.3,71.3,10,58.9,10,43.8c0-15.2,12.3-27.5,27.5-27.5C52.7,16.3,65,28.6,65,43.8
	C65,58.9,52.7,71.3,37.5,71.3z"/>
<linearGradient id="SVGID_45_" gradientUnits="userSpaceOnUse" x1="22.5474" y1="50.2155" x2="50.6321" y2="42.4407">
	<stop  offset="0" style="stop-color:#0982CC"/>
	<stop  offset="1" style="stop-color:#8FE0FF"/>
</linearGradient>
<path class="st117" d="M54.7,57.4c-0.1-0.1-0.2-0.3-0.3-0.4c-1.2-1.2-2.4-2.3-3.6-3.5c-1-1-2.1-2-3.1-3c-0.6-0.6-1.2-0.6-1.8,0
	c-0.1,0.1-0.2,0.2-0.3,0.3c-0.2,0.2-0.3,0.4-0.5,0.6c-0.4-0.4-0.8-0.8-1.1-1.2c5.2-5.8,4.1-14.5-1-18.9c-5.4-4.7-13.3-4.5-18.4,0.5
	c-4.8,4.8-5.4,12.5-1.1,17.9c2.2,2.8,5.1,4.4,8.7,4.9c4,0.5,7.5-0.6,10.5-3.1c0.4,0.4,0.7,0.8,1.1,1.2c-0.1,0.1-0.2,0.2-0.3,0.4
	c-0.2,0.3-0.5,0.5-0.6,0.8c-0.2,0.3-0.2,0.7,0,1c0.1,0.1,0.1,0.1,0.2,0.2c0.7,0.6,1.3,1.3,2,1.9c1.1,1.1,2.2,2.1,3.3,3.2
	c0.6,0.6,1.2,1.1,1.8,1.7c0.4,0.4,1,0.4,1.5,0c0.1-0.1,0.1-0.1,0.2-0.2c0.8-0.8,1.6-1.6,2.3-2.4c0.2-0.2,0.5-0.5,0.7-0.8
	C55,58.1,54.9,57.7,54.7,57.4z M34,53.1c-6.7,0-12-5.6-11.8-12c0.1-6.4,5.4-11.6,11.8-11.6c6.5,0,11.9,5.3,11.8,12
	C45.7,48,40.3,53.1,34,53.1z"/>
<linearGradient id="SVGID_46_" gradientUnits="userSpaceOnUse" x1="25.9026" y1="47.2602" x2="31.0553" y2="45.8337">
	<stop  offset="0" style="stop-color:#0982CC"/>
	<stop  offset="1" style="stop-color:#8FE0FF"/>
</linearGradient>
<path style="fill:url(#SVGID_46_);" d="M32,50.3c-0.3-0.1-0.6-0.1-0.9-0.2c-1.9-0.5-3.6-1.5-5.1-2.8c-0.2-0.2-0.3-0.3-0.3-0.6
	c0-0.8,0-1.6,0.3-2.4c0.5-1.4,1.4-2.3,2.9-2.5c0.3,0,0.6-0.1,0.9-0.1c0.1,0,0.1,0.1,0.1,0.1c0.1,0.5,0.2,1,0.4,1.5
	c0.4,1.5,0.7,3,1.1,4.5C31.6,48.6,31.8,49.4,32,50.3C32,50.2,32,50.2,32,50.3z"/>
<linearGradient id="SVGID_47_" gradientUnits="userSpaceOnUse" x1="34.9169" y1="46.4455" x2="41.9948" y2="44.4861">
	<stop  offset="0" style="stop-color:#0982CC"/>
	<stop  offset="1" style="stop-color:#8FE0FF"/>
</linearGradient>
<path style="fill:url(#SVGID_47_);" d="M42.2,45.8c0,0.3,0,0.7,0,1.1c0,0.1-0.1,0.1-0.1,0.2c-0.7,0.7-1.4,1.2-2.2,1.7
	c-1.1,0.6-2.3,1.1-3.6,1.4c-0.1,0-0.1,0-0.2,0c0,0,0,0-0.1,0c0.3-1.2,0.6-2.4,0.9-3.6c0.4-1.6,0.8-3.3,1.2-4.9c0-0.1,0-0.2,0.2-0.2
	c0.4,0.1,0.8,0.1,1.2,0.2c1.3,0.3,2.1,1.2,2.5,2.4C42.1,44.7,42.2,45.2,42.2,45.8z"/>
<linearGradient id="SVGID_48_" gradientUnits="userSpaceOnUse" x1="29.5629" y1="37.0224" x2="38.3962" y2="34.577">
	<stop  offset="0" style="stop-color:#0982CC"/>
	<stop  offset="1" style="stop-color:#8FE0FF"/>
</linearGradient>
<path style="fill:url(#SVGID_48_);" d="M34,31.2c-2.6,0-4.6,2.1-4.6,4.6c0,2.6,2.1,4.6,4.6,4.6c2.5,0,4.6-2,4.6-4.5
	C38.6,33.4,36.6,31.2,34,31.2z M34.6,39.9c-2.2,0.3-4.2-1.1-4.7-3.2c-0.2-0.7-0.1-1.4,0.1-2.1c0-0.1,0-0.1,0.1-0.2
	c0.4,0.2,0.8,0.4,1.2,0.6c1.5,0.4,2.9,0.2,4.1-0.8c0.2-0.1,0.4-0.2,0.6-0.2c0.4,0,0.9,0,1.3,0.2c0.2,0.1,0.5,0.2,0.7,0.3
	c0.1,0,0.1,0.1,0.1,0.2c0.3,1.3,0.1,2.5-0.7,3.5C36.7,39.2,35.7,39.8,34.6,39.9z"/>
<linearGradient id="SVGID_49_" gradientUnits="userSpaceOnUse" x1="32.4239" y1="44.0679" x2="35.3243" y2="43.265">
	<stop  offset="0" style="stop-color:#0982CC"/>
	<stop  offset="1" style="stop-color:#8FE0FF"/>
</linearGradient>
<path style="fill:url(#SVGID_49_);" d="M34.6,43.7c0,0,0,0.1,0,0.1c0,0.3,0.1,0.5,0.2,0.8c0,0.1,0,0.2-0.1,0.2
	c-0.5,0.4-1,0.7-1.5,1.1c0,0-0.1,0.1-0.1,0.1c0,0,0,0,0,0c0.1-0.3,0.1-0.5,0.2-0.8c0.1-0.4,0.2-0.9,0.3-1.4c0-0.1,0-0.1-0.1-0.1
	c0,0,0-0.1-0.1-0.1c-0.2-0.3-0.3-0.6-0.5-0.8c0-0.1,0-0.1,0-0.2c0.2-0.3,0.3-0.6,0.5-0.8c0-0.1,0.1-0.1,0.2-0.1c0.3,0,0.7,0,1,0
	c0.1,0,0.1,0,0.2,0.1c0.2,0.3,0.3,0.6,0.5,0.9c0,0.1,0,0.1,0,0.2C34.9,43.1,34.8,43.4,34.6,43.7z"/>
<linearGradient id="SVGID_50_" gradientUnits="userSpaceOnUse" x1="32.7027" y1="49.5797" x2="35.6579" y2="48.7616">
	<stop  offset="0" style="stop-color:#0982CC"/>
	<stop  offset="1" style="stop-color:#8FE0FF"/>
</linearGradient>
<path style="fill:url(#SVGID_50_);" d="M35.4,49.1c-0.4,0.4-0.8,0.9-1.3,1.4c0,0-0.1,0.1-0.1,0.1c-0.5-0.4-1-0.9-1.5-1.3
	c0.9-0.6,1.8-1.3,2.7-1.9c0.1,0.4,0.2,0.9,0.3,1.3C35.6,48.9,35.6,49,35.4,49.1z"/>
<linearGradient id="SVGID_51_" gradientUnits="userSpaceOnUse" x1="32.036" y1="47.645" x2="35.2333" y2="46.7599">
	<stop  offset="0" style="stop-color:#0982CC"/>
	<stop  offset="1" style="stop-color:#8FE0FF"/>
</linearGradient>
<path style="fill:url(#SVGID_51_);" d="M35.1,46.8c-0.9,0.6-1.7,1.3-2.6,1.9c0,0-0.1,0-0.1,0.1c0-0.2,0.1-0.4,0.1-0.6
	c0.1-0.4,0.2-0.7,0.2-1.1c0,0,0-0.1,0.1-0.1c0.7-0.5,1.4-1,2.1-1.4c0,0,0,0,0.1,0c0.1,0.3,0.1,0.5,0.2,0.7c0,0.1,0,0.2,0.1,0.3
	C35.2,46.7,35.1,46.8,35.1,46.8z"/>
</svg>
