<?xml version="1.0" encoding="utf-8"?>
<!-- Generator: Adobe Illustrator 21.0.0, SVG Export Plug-In . SVG Version: 6.00 Build 0)  -->
<svg version="1.1" xmlns="http://www.w3.org/2000/svg" xmlns:xlink="http://www.w3.org/1999/xlink" x="0px" y="0px"
	 viewBox="0 0 104.1 86.2" style="enable-background:new 0 0 104.1 86.2;" xml:space="preserve">
<style type="text/css">
	.st0{fill:#F2F2F2;}
	.st1{fill:#FFFFFF;}
	.st2{fill:url(#SVGID_1_);}
	.st3{opacity:0.5;fill:url(#SVGID_2_);}
	.st4{fill:url(#SVGID_3_);}
	.st5{opacity:0.5;fill:url(#SVGID_4_);}
	.st6{fill:url(#SVGID_5_);}
	.st7{opacity:0.5;fill:url(#SVGID_6_);}
	.st8{fill:url(#SVGID_7_);}
	.st9{opacity:0.5;fill:url(#SVGID_8_);}
</style>
<g id="BACKGROUND">
</g>
<g id="OBJECTS">
	<rect class="st1" width="104.1" height="86.2"/>
	<g>
		<linearGradient id="SVGID_1_" gradientUnits="userSpaceOnUse" x1="8.3807" y1="-7.9781" x2="97.1209" y2="85.2399">
			<stop  offset="0" style="stop-color:#FFA000"/>
			<stop  offset="1" style="stop-color:#FC6700"/>
		</linearGradient>
		<polygon class="st2" points="0,0 0,75.7 71.5,75.7 78,86.2 84.5,75.7 104.1,75.7 104.1,0 		"/>
		
			<radialGradient id="SVGID_2_" cx="52.0293" cy="42.8059" r="53.2077" gradientTransform="matrix(1 0 0 0.6967 0 8.0501)" gradientUnits="userSpaceOnUse">
			<stop  offset="0" style="stop-color:#F2F2F2"/>
			<stop  offset="1" style="stop-color:#FFFFFF;stop-opacity:0"/>
		</radialGradient>
		<path class="st3" d="M1.5,1.4L0,75.7h33.9C33.9,6.8,104.1,0,104.1,0L1.5,1.4z"/>
	</g>
	<g>
		<path class="st1" d="M35.7,28.8c-0.3,0.6-0.8,1-1.4,1.2c0,0-0.3,0.1-0.4,0.1c-0.7,0-1.5,0-2.2,0L31.6,31h4.2l-0.3,2.3h-4.2
			l-0.2,1.6h-3.6l0.2-1.6h-4.3l0.3-2.3H28l0.1-0.9h-3.9l1.1-7.9h11.3l-0.9,6.2C35.8,28.5,35.7,28.7,35.7,28.8z M28.9,21.6h-3.4
			l0.8-5.4h5.1l-0.6,4.3C30.4,21.2,29.6,21.6,28.9,21.6z M28.6,27.1h-1.2l-0.1,1h1.2L28.6,27.1z M28.9,24.3h-1.2l-0.1,1h1.2
			L28.9,24.3z M29,18.3h-1.1l-0.2,1.1h1.1L29,18.3z M36.5,20.8c-0.4,0.5-0.9,0.7-1.5,0.7h-3.7l0.8-5.4h5.2l-0.6,4.3
			C36.7,20.5,36.5,20.8,36.5,20.8z M33.2,27.1h-1.1L32,27.9h1.1L33.2,27.1z M33.6,24.3h-1.1l-0.1,0.9h1.1L33.6,24.3z M34.7,18.2
			h-0.9l-0.1,1.1h0.9L34.7,18.2z M41.5,15.8c-0.2,0.7,0.1,1.9-0.1,2.6h0.8l0.3-2h1.9l-0.3,2h1L44.7,21h-3.4c0,0,0,0.1,0,0.1L41,26.7
			c0.3,0,0.5-0.5,0.6-0.7l0.9-3.9c0,0,0-0.1,0-0.1h2.1c0,0,0,0.1,0,0.1l-2,7.4c0,0-0.2,0.3-0.2,0.3c-0.4,0.5-0.9,0.7-1.4,0.8
			c0,0.5,0.1,1.1,0.6,1.3h1.7l-0.4,2.8l-3.9,0c-0.1,0-0.3-0.1-0.3-0.1c-0.6-0.2-1-0.6-1.2-1.3c0-0.1-0.1-0.3-0.1-0.4
			c0-0.8,0.1-1.5,0.2-2.3c0,0,0-0.1,0-0.1h-1.2l0.4-2.8l0.9,0c0,0,0-0.1,0-0.1l0.1-6.3c0,0,0-0.1,0-0.1h-0.8l0.4-2.7h0.5
			c0,0,0-0.1,0-0.1c0-0.4,0-2.1,0.1-2.4L41.5,15.8z"/>
		<path class="st1" d="M56.3,18c0.1,0,0.2-0.1,0.3-0.2l1-1.9c0-0.1,0.2-0.1,0.3-0.1h3c0,0,0.1,0,0.1,0.1c0,0.2-0.2,0.4-0.2,0.6
			c0,0.1,0.1,0.1,0.1,0.1h5.6L66,19.3c0,0.1-0.1,0.2-0.2,0.2l-3.4,2.7c0,0-0.1,0.1-0.1,0.2c0,0.1,0.1,0.2,0.1,0.3
			c0.2,0.3,0.4,0.5,0.9,0.5h2.5l-0.4,2.7l-3.9,0c-1,0-1.6-1.3-2.1-1.3c-0.3,0-0.9,0.5-1.1,0.7c-0.3,0.2-1.1,0.5-1.4,0.5h-2l-1,7.1
			c0,0.1-0.1,0.3-0.2,0.4c-0.3,0.7-0.9,1.2-1.6,1.5c-0.1,0-0.3,0.1-0.4,0.1h-7l2.6-18.7h8.9L56,17.8C56.1,17.9,56.1,18,56.3,18z
			 M48.7,26.9h-0.8l-0.7,4.6H48L48.7,26.9z M49.8,19H49l-0.7,4.8h0.8L49.8,19z M52.6,26.9h-0.8l-0.7,4.6H52L52.6,26.9z M53.8,19H53
			l-0.7,4.8h0.8L53.8,19z M63.9,33.1c-0.3,0.7-0.8,1.4-1.6,1.7c0,0-0.3,0.1-0.4,0.1h-7.8l1.2-8.4H65l-0.9,6.2
			C64.1,32.7,63.9,33,63.9,33.1z M56.2,23.1c0.3,0,1.2-0.6,1.2-0.9c0-0.1,0-0.1-0.1-0.2l-0.8-1C56.4,21,56.1,21,56.1,21
			c-0.2,0-0.3,0-0.5,0.1l-0.3,2.1H56.2z M61.2,29h-2.6l-0.4,2.8h2.6L61.2,29z M61.2,19.4h-2c-0.2,0-0.3,0.2-0.4,0.3
			c0,0.1,0.4,0.4,0.5,0.4c0.1,0,0.2,0,0.4-0.1c0.2,0,0.5,0.1,0.6,0.3l0.9-0.7L61.2,19.4z"/>
		<path class="st1" d="M31.8,44l-0.7,0c0,0.3,0.2,0.4,0.5,0.4c0.3,0,1.1-0.4,1.3-0.7l1.1-1.9c0.1-0.1,0.2-0.1,0.3-0.1h2.9
			c0,0,0.1,0,0.1,0.1c0,0.1-0.1,0.3-0.1,0.4c0,0.1,0.1,0.1,0.1,0.1h4.1l-0.2,1.7h-0.8c0.1,0.5,0.7,0.6,1.1,0.5l-0.2,1.4l-2.1,0
			c-0.6,0-1.2-0.1-1.6-0.5c0,0-0.2-0.1-0.2-0.2c-0.1-0.3-0.2-0.7-0.3-1c-0.1-0.2-0.5-0.2-0.7-0.2c-0.1,0-0.2,0.1-0.2,0.1l-0.5,0.9
			c-0.4,0.7-1.3,1-2,1l-0.1,0.9h7.5l-0.6,4.5h-0.7c-0.2,1.6-0.2,3.2-2.3,3.2H25.8l-0.1,1h13.6l-0.4,3c-0.2,1.6-1.3,1.9-2.6,1.9H21.1
			l1.3-9.1h-1l0.6-4.5h8.2l0.1-0.9l-1,0c-0.5,0-1-0.3-1.2-0.7c-0.1-0.1-0.1-0.2-0.2-0.3c-0.1-0.3-0.2-0.6-0.3-0.9
			C27.5,44,27.2,44,27,44c-0.1,0-0.2,0-0.3,0.1c-0.2,0.3-0.4,0.6-0.6,0.8c0,0-0.2,0.2-0.2,0.2c-0.6,0.4-1.5,0.7-2.2,0.7h-2.1
			l0.3-2.3c0.1,0,0.3,0,0.5,0c0.4,0,1.1-0.4,1.3-0.8c0.2-0.4,0.3-0.8,0.5-1.1c0-0.1,0.2-0.1,0.3-0.1h3.5c0,0,0.1,0,0.1,0.1
			c0,0.1-0.2,0.3-0.3,0.5c0,0.1,0.1,0.1,0.1,0.1h4L31.8,44z M37.3,49.8l0.1-0.9H25.3l-0.1,0.9H37.3z M35.2,57.3h-9.9l-0.1,1h9.9
			L35.2,57.3z M35.9,52.8l0.1-0.9h-9.9L26,52.8H35.9z"/>
		<path class="st1" d="M48.9,44.9l-0.6,4.5h1.5l-0.4,3.1h-1.5l-0.7,5h1.5l-0.4,3h-7l0.4-3h1.8l0.7-5h-1.6l0.4-3.1h1.6l0.6-4.5h-1.7
			l0.4-3H51l-0.4,3H48.9z M61.5,51.4c-0.3,0.7-0.8,1.1-1.5,1.3c-0.1,0-0.3,0.1-0.4,0.1c-0.6,0-1.3,0-1.9,0l-0.1,0.9h3.8l-0.4,2.6
			h-3.8l-0.2,1.2h3.9l-0.4,2.8H49l0.4-2.8h3.9l0.2-1.1h-3.8l0.4-2.7h3.8l0.1-0.9h-3.9l1.6-11.1H63L61.7,51
			C61.7,51,61.6,51.3,61.5,51.4z M54.6,48.6h-1.2l-0.2,1.5h1.2L54.6,48.6z M55.2,44.5h-1.2L53.8,46H55L55.2,44.5z M59.4,48.6h-1.1
			l-0.2,1.5h1.1L59.4,48.6z M60,44.5h-1.1L58.7,46h1.1L60,44.5z"/>
		<path class="st1" d="M63.9,52.2h9.8l-0.9,6c-0.2,1.1-0.6,2-1.8,2.4c-0.2,0.1-0.6,0.2-0.7,0.2h-7.6L63.9,52.2z M70.1,48.5l1.2-2.8
			c0-0.1,0.1-0.1,0.2-0.1h2.9c0,0,0.1,0,0.1,0.1c-0.1,0.5-1.2,2.5-1.2,2.9c0,0.1,0.1,0.1,0.1,0.1h1l-0.4,2.7H64l0.4-2.7h1.3
			c0,0,0.1,0,0.1-0.1c0.1-0.4-0.5-2.5-0.4-2.9c0-0.1,0.1-0.1,0.1-0.1h2.9c0.1,0,0.2,0.1,0.2,0.1l0.3,2.8c0,0.1,0.1,0.1,0.2,0.1h0.8
			C69.9,48.6,70,48.6,70.1,48.5z M72.1,42.5h3l-0.4,2.7h-9.8l0.4-2.5h2.9l0.2-1.3h3.8L72.1,42.5z M69.4,58.1l0.5-3.4h-2.7l-0.5,3.4
			H69.4z M80.4,59.1c-0.1,0-0.4,0.1-0.5,0.1c-0.9,0-1.9,0-2.9,0c0,0.5-0.2,0.9-0.2,1.4h-3.4L76,41.9h6.3c1,0,1.5,0.6,1.7,1.5
			c0,0.1,0.1,0.5,0.1,0.6L83.4,49c-0.1,0.5-0.6,1.4-1,1.7c0.4,0.4,0.7,0.9,0.6,1.6l-0.8,5.4C81.8,58.4,81.2,58.9,80.4,59.1z
			 M78.9,56.6l0.6-4.4h-1.5l-0.6,4.4H78.9z M80,49.3l0.6-4.4h-1.5l-0.6,4.4H80z"/>
	</g>
</g>
<g id="DESIGNED_BY_FREEPIK">
</g>
</svg>
