<?xml version="1.0" encoding="utf-8"?>
<!-- Generator: Adobe Illustrator 21.0.0, SVG Export Plug-In . SVG Version: 6.00 Build 0)  -->
<svg version="1.1" xmlns="http://www.w3.org/2000/svg" xmlns:xlink="http://www.w3.org/1999/xlink" x="0px" y="0px"
	 viewBox="0 0 104.1 85.7" style="enable-background:new 0 0 104.1 85.7;" xml:space="preserve">
<style type="text/css">
	.st0{fill:#F2F2F2;}
	.st1{fill:#FFFFFF;}
	.st2{fill:url(#SVGID_1_);}
	.st3{opacity:0.5;fill:url(#SVGID_2_);}
	.st4{fill:url(#SVGID_3_);}
	.st5{opacity:0.5;fill:url(#SVGID_4_);}
	.st6{fill:url(#SVGID_5_);}
	.st7{opacity:0.5;fill:url(#SVGID_6_);}
	.st8{fill:url(#SVGID_7_);}
	.st9{opacity:0.5;fill:url(#SVGID_8_);}
</style>
<g id="BACKGROUND">
</g>
<g id="OBJECTS">
	<rect x="0" class="st1" width="104.1" height="86"/>
	<g>
		<linearGradient id="SVGID_1_" gradientUnits="userSpaceOnUse" x1="8.3806" y1="-7.9783" x2="97.121" y2="85.24">
			<stop  offset="0" style="stop-color:#F97675"/>
			<stop  offset="1" style="stop-color:#D12D28"/>
		</linearGradient>
		<polygon class="st2" points="0,0 0,75.7 71.5,75.7 78,86.2 84.5,75.7 104.1,75.7 104.1,0 		"/>
		
			<radialGradient id="SVGID_2_" cx="52.0293" cy="145.1103" r="53.2078" gradientTransform="matrix(1 0 0 0.6967 0 -63.2254)" gradientUnits="userSpaceOnUse">
			<stop  offset="0" style="stop-color:#F2F2F2"/>
			<stop  offset="1" style="stop-color:#FFFFFF;stop-opacity:0"/>
		</radialGradient>
		<path class="st3" d="M1.5,1.4L0,75.7h33.9C33.9,6.8,104.1,0,104.1,0L1.5,1.4z"/>
	</g>
	<g>
		<path class="st1" d="M36.4,20.5h7.3l-1.5,10.4c0,0.1-0.1,0.4-0.2,0.5c-0.3,0.7-0.9,1.2-1.6,1.2h-3.9l0.4-3c1,0,1.9,0.1,2.1-1.2
			l0.7-4.9h-3.7l-1.4,9.9h-4.1l1.4-9.9h-3.8l-1.3,9.4h-3.6l1.7-12.2l7.4,0l0.2-1.3h4.1L36.4,20.5z M25.4,15.9h7.5l0.2-1.6h4.1
			L37,15.8h7.5l-0.4,2.8H25L25.4,15.9z"/>
		<path class="st1" d="M52.7,15.7l-0.4,3h-1.2l-1.6,11.7h1.1l-0.4,3.2h-6l0.4-3.2l1.3,0c0.5-3.9,1.1-7.8,1.7-11.7h-1.2l0.4-3h1.2
			l0.2-1.7h3.6l-0.2,1.7H52.7z M56.6,25.3h8.1l-0.9,6.5c-0.1,0.9-0.9,1.7-1.8,1.7h-2.5l0.4-3h0.4l0.3-1.9c-0.5,1.4-1.1,2.7-1.7,4
			c-1.1,1-2,0.9-3.3,0.9l0.4-3.1h0.3c0.5-0.3,1.1-1.8,1.3-2.3c0-0.1,0.1-0.1,0.2-0.1h3l0.1-0.5h-5.5c-0.1,0-0.2,0-0.3,0.1
			c0,0-0.3,0.3-0.3,0.3c0,0,0.1,0,0.1,0l1.7,0c-0.5,1.3-1.4,3.8-2.2,4.9c-1.1,0.8-2.4,0.7-3.7,0.7l0.4-3c0.2,0,0.3,0,0.5,0
			c0.3,0,0.7-0.6,0.8-0.9c0.1-0.3,0.4-1,0.4-1.3c0-0.1-0.1-0.1-0.1-0.1H51l0.4-2.9c0.7,0,1.3,0.2,1.7-0.6c0,0,0.1-0.2,0.1-0.2
			c0-0.1-0.8-0.1-1-0.1l0.3-2.1h12.9l-0.3,2.1H57c-0.1,0-0.2,0-0.2,0.1c0,0.1-0.3,0.6-0.3,0.7C56.5,25.3,56.5,25.3,56.6,25.3z
			 M66.2,14.5l-0.8,5.8c-0.1,0.7-0.9,1.2-1.5,1.3c0,0-0.4,0.1-0.4,0.1H52.8l1-7.2H66.2z M56.5,19.8h5.1l0.1-0.7h-5.1L56.5,19.8z
			 M56.8,17.5H62l0.1-0.7h-5.1L56.8,17.5z"/>
		<path class="st1" d="M25.3,44.7h2.2c0.1,0,0.1,0.1,0.1,0.1c-0.2,0.3-2.2,3.8-2.2,3.8c0,0.1,0.6,0.1,0.8,0.1l-1.4,10.2H21l1.3-9.1
			h-1.7l0.4-2.9c1.3,0,2.2-0.6,2.8-1.8h-2.5l0.4-2.7l0.8,0c0.3,0,1-0.2,1.2-0.5c0.3-0.5,0.5-1,0.8-1.5c0.1-0.1,0.1-0.2,0.2-0.2h3.7
			C27.5,41.7,26.5,43.3,25.3,44.7z M37.2,56.3c0,0.1-0.1,0.4-0.2,0.5c-0.3,0.7-0.7,1.5-1.5,1.8c-0.1,0-0.3,0.1-0.3,0.1h-6.9l0.4-2.6
			h5l1.1-7.5h-7.3l0.4-3h12.6l-0.4,3h-1.8L37.2,56.3z M29.2,40.2h11.5l-0.4,2.8H28.8L29.2,40.2z"/>
		<path class="st1" d="M50.5,47.7l-0.4,2.6h-2.2L47.5,53c0.2,0,0.5-0.4,0.5-0.5c0.1-0.5,0.1-1,0.2-1.5h2c0,0,0,0.1,0,0.1l-0.7,3.4
			c0,0-0.1,0.2-0.1,0.2c-0.3,0.4-0.7,0.8-1.2,1c0,0-0.2,0.1-0.3,0.1c-0.3,0-0.5,0-0.8,0l-0.1,0.5h2.6l-0.4,2.8h-8.7l0.4-2.8h2.6
			l0.1-0.5l-1,0c-0.4-0.3-0.6-0.7-0.8-1.1c0,0-0.1-0.2-0.1-0.2l0.1-3.4C41.9,51,42,51,42,51h1.6c0.1,0,0.2,0,0.2,0.1l0,1.5
			c0,0.2,0.2,0.3,0.3,0.3l0.4-2.7h-2.1l0.4-2.6h2.1l0.1-0.7h-2.1l0.1-1h-0.7l0.3-2.4c0-0.1,0.1-0.1,0.1-0.2c0.4-0.4,0.6-0.7,0.9-1.2
			l0.8-1.8c0-0.1,0.1-0.1,0.2-0.1h5.9c0.1,0,0.2,0,0.2,0.1l0.2,2c0,0.3,0.2,0.7,0.5,0.8l0.1-0.5c0.3,0,0.5-0.1,0.7-0.3l0.5-1.7
			c0-0.1,0.1-0.1,0.2-0.1H55c0,0,0,0.1,0,0.1l-0.9,3.4c-0.1,0.5-1.1,1.2-1.6,1.2c-0.5,0-0.9,0-1.4,0L51,45.9h-0.4l-0.1,1h-2.1
			l-0.1,0.7H50.5z M47.5,44.4l0.2-1.2h-1.3l-0.2,1.2H47.5z M61.6,45.9L60.1,57c0,0-0.1,0.3-0.2,0.4c-0.3,0.7-0.8,1.2-1.5,1.4
			c0,0-0.3,0.1-0.4,0.1H55l0.4-2.5c0.3,0,0.7,0,1,0c0.3,0,0.3-0.5,0.3-0.6h-2.7l-0.4,3.1h-3.4l1.8-13h2.9l0.8-5.9h3.6l-0.8,5.9H61.6
			z M57.2,52.2h-2.7l-0.1,1h2.7L57.2,52.2z M57.6,48.6H55l-0.1,1h2.7L57.6,48.6z M62.2,45.3l-1.4,0c-0.5-0.2-1-0.8-1-1.4
			c0-0.4,0-3.1,0-3.3h2.3C62,41,62,41.9,62,42.3c0,0.3,0.3,0.5,0.5,0.5L62.2,45.3z"/>
		<path class="st1" d="M63.4,50.7h9.8l-0.9,6c-0.2,1.1-0.6,2-1.8,2.4c-0.2,0.1-0.6,0.2-0.7,0.2h-7.6L63.4,50.7z M69.6,47l1.2-2.8
			c0-0.1,0.1-0.1,0.2-0.1h2.9c0,0,0.1,0,0.1,0.1c-0.1,0.5-1.2,2.5-1.2,2.9c0,0.1,0.1,0.1,0.1,0.1h1l-0.4,2.7h-10l0.4-2.7h1.3
			c0,0,0.1,0,0.1-0.1c0.1-0.4-0.5-2.5-0.4-2.9c0-0.1,0.1-0.1,0.1-0.1h2.9c0.1,0,0.2,0.1,0.2,0.1l0.3,2.8c0,0.1,0.1,0.1,0.2,0.1h0.8
			C69.4,47.1,69.5,47.1,69.6,47z M71.6,41h3l-0.4,2.7h-9.8l0.4-2.5h2.9l0.2-1.3h3.8L71.6,41z M68.9,56.6l0.5-3.4h-2.7l-0.5,3.4H68.9
			z M79.9,57.6c-0.1,0-0.4,0.1-0.5,0.1c-0.9,0-1.9,0-2.9,0c0,0.5-0.2,0.9-0.2,1.4h-3.4l2.6-18.7h6.3c1,0,1.5,0.6,1.7,1.5
			c0,0.1,0.1,0.5,0.1,0.6l-0.7,5.1c-0.1,0.5-0.6,1.4-1,1.7c0.4,0.4,0.7,0.9,0.6,1.6l-0.8,5.4C81.3,56.9,80.7,57.4,79.9,57.6z
			 M78.4,55.1l0.6-4.4h-1.5L77,55.1H78.4z M79.5,47.8l0.6-4.4h-1.5L78,47.8H79.5z"/>
	</g>
</g>
<g id="DESIGNED_BY_FREEPIK">
</g>
</svg>
