<?xml version="1.0" encoding="utf-8"?>
<!-- Generator: Adobe Illustrator 21.0.0, SVG Export Plug-In . SVG Version: 6.00 Build 0)  -->
<svg version="1.1" xmlns="http://www.w3.org/2000/svg" xmlns:xlink="http://www.w3.org/1999/xlink" x="0px" y="0px"
	 viewBox="0 0 104.1 86.2" style="enable-background:new 0 0 104.1 86.2;" xml:space="preserve">
<style type="text/css">
	.st0{fill:#F2F2F2;}
	.st1{fill:#FFFFFF;}
	.st2{fill:url(#SVGID_1_);}
	.st3{opacity:0.5;fill:url(#SVGID_2_);}
	.st4{fill:url(#SVGID_3_);}
	.st5{opacity:0.5;fill:url(#SVGID_4_);}
	.st6{fill:url(#SVGID_5_);}
	.st7{opacity:0.5;fill:url(#SVGID_6_);}
	.st8{fill:url(#SVGID_7_);}
	.st9{opacity:0.5;fill:url(#SVGID_8_);}
</style>
<g id="BACKGROUND">
</g>
<g id="OBJECTS">
	<rect x="0" y="0.1" class="st1" width="104.1" height="86"/>
	<g>
		<linearGradient id="SVGID_1_" gradientUnits="userSpaceOnUse" x1="8.381" y1="-7.9784" x2="97.1217" y2="85.2401">
			<stop  offset="1.634250e-03" style="stop-color:#008FC4"/>
			<stop  offset="1" style="stop-color:#00DAF8"/>
		</linearGradient>
		<polygon class="st2" points="0,0 0,75.7 71.5,75.7 78,86.2 84.5,75.7 104.1,75.7 104.1,0 		"/>
		
			<radialGradient id="SVGID_2_" cx="52.0298" cy="149.4637" r="53.2079" gradientTransform="matrix(1 0 0 0.6967 0 -66.2584)" gradientUnits="userSpaceOnUse">
			<stop  offset="0" style="stop-color:#F2F2F2"/>
			<stop  offset="1" style="stop-color:#FFFFFF;stop-opacity:0"/>
		</radialGradient>
		<path class="st3" d="M1.5,1.4L0,75.7h33.9C33.9,6.8,104.1,0,104.1,0L1.5,1.4z"/>
	</g>
	<g>
		<path class="st1" d="M31,19.9h2.2c0.1,0,0.1,0.1,0.1,0.2c-0.2,0.3-2.2,3.8-2.2,3.8c0,0.1,0.6,0.1,0.8,0.1l-1.4,10.2h-3.8l1.3-9.1
			h-1.7l0.4-2.9c1.3,0,2.2-0.6,2.8-1.8h-2.5l0.4-2.7l0.8,0c0.3,0,1-0.2,1.2-0.5c0.3-0.5,0.5-1,0.8-1.5c0.1-0.1,0.1-0.2,0.2-0.2H34
			C33.1,17,32.1,18.5,31,19.9z M42.8,31.5c0,0.1-0.1,0.4-0.2,0.5c-0.3,0.7-0.7,1.5-1.5,1.8c-0.1,0-0.3,0.1-0.3,0.1h-6.9l0.4-2.6h5
			l1.1-7.5h-7.3l0.4-3h12.6l-0.4,3h-1.8L42.8,31.5z M34.8,15.4h11.5l-0.4,2.8H34.4L34.8,15.4z"/>
		<path class="st1" d="M63.8,15.4c0,0.1-0.5,1-0.6,1.1c0,0.1,0,0.2,0.1,0.2h4.7l-0.4,2.9h-0.9l0,0.1l-3.3,6.4c0,0.2,1.3,3.8,1.5,4.2
			c0.2,0.6,0.6,1,1.3,1l-0.4,2.7h-1.5c-1.9,0-2.3-1.6-2.9-3c0,0-0.1-0.1-0.1-0.1c0,0-0.1,0-0.1,0.1l-0.8,1.6
			c-0.9,1.8-2.7,1.5-4.3,1.5l0.5-3.2c0.8,0,1.4-0.4,1.8-1.2c0.1-0.3,1.4-2.9,1.4-3c0-0.1,0-0.2-0.1-0.2c-0.1-0.4-1.8-5.3-1.8-5.3
			l3.7,0c0.3,0,0.3,0.5,0.4,0.5c0.1-0.3,1-1.9,1-2c0-0.1,0-0.1-0.1-0.1l-1.7,0c-0.4,1.2-2.9,1-3.7,1l0.3-2.2h-1.6l-0.5,3.2h1.2
			l-0.5,3.3h-1.2l-0.9,6.1h1.2l-0.4,3.1h-8.9l0.4-3.1h0.4l1.6-11.4h2.9L50,31.2h1.2L53,18.6h-4.5l0.4-3h9.5L58,17.9
			c0.5-0.1,0.8-0.4,1.1-0.8l1-1.7l0-0.1h3.6C63.6,15.3,63.8,15.3,63.8,15.4z"/>
		<path class="st1" d="M21.1,59.3l0.3-2.2c0.3-0.2,0.4-0.6,0.5-0.9c0.1-0.5,0.4-1.8,0.5-2.2H24c0,0,0,0.1,0,0.1l-0.9,4.2
			c-0.1,0.5-0.7,1.1-1.2,1.1H21.1z M28.4,44.6H31l0.2-1.1c0.4-0.1,1.2-0.6,1.4-0.9c0.3-0.4,0.6-0.9,0.9-1.3c0.1-0.1,0.2-0.1,0.3-0.1
			l2.3,0c0,0,0.1,0,0.1,0.1c0,0.2-0.3,0.5-0.3,0.7c0,0.1,0.1,0.1,0.1,0.1h7l-1.2,8.8c0,0-0.2,0.4-0.2,0.4c-0.4,0.7-1,1.2-1.8,1.4
			c-0.1,0-0.4,0.1-0.4,0.1h-8.7l0.9-6.4H31c-0.1,0-0.2,0-0.3,0.1c-0.2,0.2-2.3,2.6-2.2,2.6c0.1,0.1,1.7,0,1.9,0l-0.4,3
			c0,0-0.1,0.2-0.1,0.3c-0.2,0.4-0.8,0.9-1.3,0.9c-0.2,0-0.5,0-0.7,0l-0.9,6.7h-3.5l0.9-6.5h-1.8l0.4-3.1c0-0.1,0.1-0.1,0.2-0.2
			l3.2-2.9c0-0.1-2.6-0.1-2.9-0.1l0.4-2.6c0-0.1,0.1-0.1,0.1-0.2l3.1-3c0,0,0.2-0.1,0.3-0.1l3.9,0c0,0,0.1,0,0.1,0L28.4,44.6
			C28.4,44.6,28.4,44.6,28.4,44.6z M28.5,49.7c0,0,0-0.1,0-0.1l-0.3,0c-0.1,0-0.2,0-0.2,0.1L27,50.8c0,0,0.1,0,0.1,0h0.5
			C28.3,50.8,28.4,50.3,28.5,49.7z M30.2,56.6l0.6-3l0-0.1l2,0c0,0,0,0.1,0,0.1l-1.1,5c-0.1,0.5-0.7,1-1.2,1.2h-1.3l0.1-0.5h-0.5
			c-0.5,0-0.8-0.5-0.9-0.9c0,0-0.1-0.3-0.1-0.4l0.5-4l0-0.1h1.5c0,0,0,0.1,0,0.1l-0.2,2.4c0,0.1,0.2,0.4,0.3,0.4
			C30,56.8,30.1,56.7,30.2,56.6z M37.7,59.8h-4c0,0-0.2-0.1-0.2-0.1c-0.6-0.2-0.9-0.6-1.1-1.2c0-0.1-0.1-0.3-0.1-0.4l0.7-4.8h2.8
			l-0.6,3.9c0,0.3,0.1,0.6,0.4,0.8c0,0,0.2,0.1,0.2,0.1h2L37.7,59.8z M39.4,50.6l0.9-6.1h-1.6c-0.3,0-0.5,0.3-0.6,0.5
			c0,0.1,1.7,0.1,1.9,0.1l-0.3,2.5c0,0.1,0,0.2-0.1,0.3c-0.5,0.6-1.9,2.4-2.8,2.4h-2.7l0.2-1.7h1c0.1,0,0.6-0.2,0.7-0.3
			c-0.6-1.1-0.3-1-1.5-1l0.2-1.6c0.4-0.3,0.8-0.7,1-1.2h-0.7L34.3,45l-0.8,5.6H39.4z M36.9,57.3c-0.4-0.2-0.6-0.7-0.6-1.1l0-2.5
			c0-0.1,0.1-0.1,0.1-0.1l1.5,0c0,0.7,0.2,1.5,0.6,2l-0.3,1.8H36.9z M36.9,46.9l0.3,0.8c0.3,0,0.7-0.8,0.8-0.8c0,0-0.1,0-0.1,0H37
			C37,46.8,36.9,46.8,36.9,46.9z M40.8,59.9h-1.7c-0.4-0.3-0.6-0.8-0.7-1.3c0-0.1,0-0.3,0-0.4l0.7-4.7h1.8c-0.2,1-0.3,2.1-0.4,3.2
			c-0.1,0.4,0.4,0.8,0.7,0.9L40.8,59.9z"/>
		<path class="st1" d="M42.6,59.1l0.3-2.4c0.3-0.2,0.6-0.9,0.7-1.2l1-4.5c0,0,0-0.1,0-0.1h2.2c0,0,0,0.1,0,0.1l-1.2,5.8
			c-0.2,1-0.9,2.2-2.1,2.2H42.6z M53.5,43.8c-0.1,0.3-1.9,3.5-1.9,3.5c0,0.1,0.1,0.1,0.1,0.1h1.3l-1.4,10.1H50l1-7.4h-0.6L49.3,58
			c0,0.3-0.5,1.4-0.8,1.6c-0.4,0.3-1.2,0.4-1.6,0.4h-1.6l0.3-2.4h0.3c0.2-0.1,0.3-0.3,0.4-0.5l1-7h-3l0.4-2.8h1.1c0,0,0.1,0,0.1-0.1
			c0.1-0.4-0.4-2.1-0.4-2.5c0-0.1,0.1-0.1,0.1-0.1h2.3c0.1,0,0.2,0,0.2,0.1l0.4,2.2c0.1,0,0.1,0,0.1,0c0.1-0.3,1.5-2.9,1.5-3
			c0-0.1-0.1-0.1-0.1-0.1h-4.9l0.4-2.6h8.5l-0.3,2.1C53.6,43.6,53.6,43.7,53.5,43.8z M59.1,41c0,0.2-0.3,0.5-0.3,0.8
			c0,0.1,0.1,0.1,0.1,0.1h6l-0.3,2.4c-0.1,0-0.8,0-0.9,0.1l-2.5,2.7c0,0.1,0.6,0.6,0.7,0.6c0.5,0.4,1.6,0.3,2.2,0.3l-0.3,2.4l-3.3,0
			c-0.3,0-1-0.3-1.2-0.5c-0.2-0.1-0.3-0.3-0.4-0.5c0,0-0.1,0-0.1,0c0,0-0.1,0-0.1,0c-0.4,0.4-0.5,0.5-1,0.8h1.4c0,0,0.1,0,0.1,0
			c-0.1,0.4-0.3,0.8-0.4,1.1c0,0.1,0.1,0.1,0.1,0.1h4.1L62,57.6c-0.1,0.4-0.3,1.3-0.6,1.6c-0.3,0.3-1.2,0.7-1.6,0.7h-2.5l0.4-2.6
			l0.6,0c0.2-0.1,0.4-0.4,0.4-0.6l0.4-2.6h-1.2c-0.1,0-0.2,0-0.3,0.1l-1.1,3.5c-0.1,0.4-0.5,1-0.8,1.3C55.3,59.6,54.5,60,54,60h-2.2
			l0.4-2.5l0.6,0c0.4-0.2,0.6-0.6,0.7-1c0.1-0.4,0.7-1.9,0.7-2.2c0-0.1-0.1-0.1-0.1-0.1h-1l0.4-2.7l1.5,0c0.1,0,0.2,0,0.3-0.1
			c0.1-0.3,0.2-0.6,0.3-0.9c0-0.1,0-0.1-0.1-0.1h-2.1l0.3-2.4c0.4,0,0.9,0,1.3,0c0.2,0,1-0.3,1.1-0.4c0.1-0.1,0.3-0.3,0.5-0.4
			c0,0,0.1,0,0.1,0s0-0.1,0-0.1l-1.5-1.6c-0.1-0.1-1.2-0.1-1.3-0.1l0.3-2c1.2-0.6,1.4-2.5,1.9-2.5h3.2C59,41,59.1,41,59.1,41z
			 M59.6,44.1l-1.8,0c-0.1,0-0.2,0-0.3,0.1L57,44.9c0,0,0,0,0,0l1.8,0c0.1,0,0.2,0,0.2-0.1L59.6,44.1C59.6,44.1,59.6,44.1,59.6,44.1
			z"/>
		<path class="st1" d="M65.4,51.6h9.8l-0.9,6c-0.2,1.1-0.6,2-1.8,2.4c-0.2,0.1-0.6,0.2-0.7,0.2h-7.6L65.4,51.6z M71.6,47.9l1.2-2.8
			c0-0.1,0.1-0.1,0.2-0.1h2.9c0,0,0.1,0,0.1,0.1c-0.1,0.5-1.2,2.5-1.2,2.9c0,0.1,0.1,0.1,0.1,0.1h1l-0.4,2.7h-10l0.4-2.7h1.3
			c0,0,0.1,0,0.1-0.1c0.1-0.4-0.5-2.5-0.4-2.9c0-0.1,0.1-0.1,0.1-0.1h2.9c0.1,0,0.2,0.1,0.2,0.1l0.3,2.8c0,0.1,0.1,0.1,0.2,0.1h0.8
			C71.4,48.1,71.5,48,71.6,47.9z M73.6,42h3l-0.4,2.7h-9.8l0.4-2.5h2.9l0.2-1.3h3.8L73.6,42z M70.9,57.6l0.5-3.4h-2.7l-0.5,3.4H70.9
			z M81.9,58.6c-0.1,0-0.4,0.1-0.5,0.1c-0.9,0-1.9,0-2.9,0c0,0.5-0.2,0.9-0.2,1.4h-3.4l2.6-18.7h6.3c1,0,1.5,0.6,1.7,1.5
			c0,0.1,0.1,0.5,0.1,0.6l-0.7,5.1c-0.1,0.5-0.6,1.4-1,1.7c0.4,0.4,0.7,0.9,0.6,1.6l-0.8,5.4C83.3,57.8,82.7,58.3,81.9,58.6z
			 M80.4,56.1l0.6-4.4h-1.5L79,56.1H80.4z M81.5,48.8l0.6-4.4h-1.5L80,48.8H81.5z"/>
	</g>
</g>
<g id="DESIGNED_BY_FREEPIK">
</g>
</svg>
